<?xml version="1.0" encoding="UTF-8"?>
<svg width="102px" height="129px" viewBox="0 0 102 129" version="1.1" xmlns="http://www.w3.org/2000/svg" xmlns:xlink="http://www.w3.org/1999/xlink">
    <title>Group 612</title>
    <g id="Page-1" stroke="none" stroke-width="1" fill="none" fill-rule="evenodd">
        <g id="tpgi-home-v5" transform="translate(-981.000000, -2475.000000)">
            <g id="Group-612" transform="translate(981.693758, 2475.375732)">
                <path d="M9.14598466,17.149542 L92.0372215,17.149542 C94.5633755,17.149542 96.6104415,19.19742 96.6104415,21.722761 L96.6104415,124.050995 C96.6104415,126.57634 94.5633755,128.624222 92.0372215,128.624222 L9.14598466,128.624222 C6.61983156,128.624222 4.57276346,126.57634 4.57276346,124.050995 L4.57276346,21.722761 C4.57276346,19.19742 6.61983156,17.149542 9.14598466,17.149542" id="Fill-598" fill="#1A75BB"></path>
                <polygon id="Fill-600" fill="#ECCB48" points="14.8628506 42.8744246 86.3210356 42.8744246 92.0375576 120.049149 9.14632419 120.049149"></polygon>
                <polygon id="Fill-602" fill="#ECCB48" points="14.8629656 43.1602743 86.3211494 43.1602743 100.612463 104.61454 -1.13686838e-13 104.61454"></polygon>
                <polygon id="Fill-604" fill="#F1673F" points="10.1616183 104.614242 13.9122734 47.6024553 14.8631362 43.1599733 86.3213182 43.1599733 87.2908532 47.8996463 91.0220162 104.614242"></polygon>
                <polygon id="Fill-606" fill="#FFFFFF" points="68.5995007 63.8682096 45.7869927 80.6044766 33.1562367 71.0439146 38.5780007 67.2615896 45.8706267 72.7816006 63.2597407 60.0241776"></polygon>
                <path d="M14.8626844,25.1526636 C14.8626844,23.8899956 15.8866254,22.8660546 17.1492944,22.8660546 L84.0342614,22.8660546 C85.2969344,22.8660546 86.3208754,23.8899956 86.3208754,25.1526636 L86.3208754,43.4455486 L14.8626844,43.4455486 L14.8626844,25.1526636 Z" id="Fill-608" fill="#F1673F"></path>
                <path d="M40.587694,9.7180939 C40.587694,4.3507299 44.938425,0 50.305788,0 C55.673155,0 60.023878,4.3507299 60.023878,9.7180939 L60.023878,10.2897453 C60.023878,10.67626 60.001142,11.0579033 59.958113,11.4330502 L73.172697,11.4330502 C75.698042,11.4330502 77.745924,13.4809303 77.745924,16.0062714 L77.745924,24.009407 C77.745924,26.535559 75.698042,28.582628 73.172697,28.582628 L27.438875,28.582628 C24.913538,28.582628 22.865656,26.535559 22.865656,24.009407 L22.865656,16.0062714 C22.865656,13.4809303 24.913538,11.4330502 27.438875,11.4330502 L40.653471,11.4330502 C40.61043,11.0579033 40.587694,10.67626 40.587694,10.2897453 L40.587694,9.7180939 Z M50.305788,12.0047035 C51.884329,12.0047035 53.164053,10.7249813 53.164053,9.1464405 C53.164053,7.5678997 51.884329,6.2881775 50.305788,6.2881775 C48.727247,6.2881775 47.447527,7.5678997 47.447527,9.1464405 C47.447527,10.7249813 48.727247,12.0047035 50.305788,12.0047035 L50.305788,12.0047035 Z" id="Fill-610" fill="#1A75BB"></path>
            </g>
        </g>
    </g>
</svg>