<svg viewBox="0 0 75 75" xmlns="http://www.w3.org/2000/svg"><path d="m49.43 50.28a.65.65 0 0 1 .35-.57 25.46 25.46 0 1 0 -23.83 0 .64.64 0 0 1 .34.57v11.63a9.26 9.26 0 0 0 9.26 9.25h4.63a9.25 9.25 0 0 0 9.25-9.25z" fill="#eccb48"/><g fill-rule="evenodd"><path d="m49.43 50.28s0-.08 0-.12h-23.15a.49.49 0 0 1 0 .12v11.63a9.26 9.26 0 0 0 7.78 9.09 1.9 1.9 0 0 0 1.94 1.75h3.82a1.91 1.91 0 0 0 1.85-1.75 9.26 9.26 0 0 0 7.76-9.13z" fill="#1a75bb"/><path d="m40.17 50.53a1.59 1.59 0 1 0 -.8 3.08l9.63 2.52a1.59 1.59 0 1 0 .81-3.08zm-14 1.59a1.59 1.59 0 0 0 -.83 3.07l23.66 6.35a1.59 1.59 0 0 0 .83-3.08zm-1.62 11.95a1.58 1.58 0 0 1 1.94-1.13l9.67 2.52a1.59 1.59 0 1 1 -.81 3.08l-9.66-2.54a1.59 1.59 0 0 1 -1.14-1.93zm1.64-6.22a1.59 1.59 0 0 0 -.83 3.07l23.64 6.34a1.59 1.59 0 1 0 .83-3.07z" fill="#1a75bb"/><path d="m49.43 52.94-9.26-2.41a1.59 1.59 0 1 0 -.8 3.08l9.63 2.52a1.9 1.9 0 0 0 .4 0zm0 5.41-23.14-6.2v3.29l22.71 6.1a2 2 0 0 0 .41.05zm-.24 5.65-22.9-6.13v3.29l21.64 5.84a9.29 9.29 0 0 0 1.26-3zm-21.68 2.49 7.84 2.05a1.59 1.59 0 1 0 .81-3.08l-9.67-2.52a.35.35 0 0 0 -.14 0 9.15 9.15 0 0 0 1.16 3.55z" fill="#243e84"/></g><path d="m23.86 31.39 5.42 5.41 4.37-4.16 4.35 4.16 4.37-4.16 4.38 4.16 5.41-5.41" fill="none" stroke="#fff" stroke-linecap="round" stroke-width="3"/></svg>