<svg width="250" height="250" viewBox="0 0 250 250" fill="none" xmlns="http://www.w3.org/2000/svg">
<g clip-path="url(#clip0)">
<rect x="35" y="25" width="180" height="50" rx="25" fill="#1B75BC"/>
<path fill-rule="evenodd" clip-rule="evenodd" d="M137 54C137 76.6437 118.644 95 96 95C73.3563 95 55 76.6437 55 54C55 31.3563 73.3563 13 96 13C118.644 13 137 31.3563 137 54ZM142 54C142 79.4051 121.405 100 96 100C70.5949 100 50 79.4051 50 54C50 28.5949 70.5949 8 96 8C121.405 8 142 28.5949 142 54ZM120 54C120 67.2548 109.255 78 96 78C82.7452 78 72 67.2548 72 54C72 40.7452 82.7452 30 96 30C109.255 30 120 40.7452 120 54ZM130 54C130 72.7777 114.778 88 96 88C77.2223 88 62 72.7777 62 54C62 35.2223 77.2223 20 96 20C114.778 20 130 35.2223 130 54Z" fill="#ECCB49"/>
<path fill-rule="evenodd" clip-rule="evenodd" d="M186.163 49.3493L174.581 37.768L178.117 34.2324L193.234 49.3493L178.117 64.4662L174.581 60.9307L186.163 49.3493Z" fill="white"/>
<path fill-rule="evenodd" clip-rule="evenodd" d="M93.3524 39.25C94.2097 39.0859 95.0949 39 96 39C96.9061 39 97.7921 39.0861 98.6503 39.2505C105.115 40.4892 110 46.1741 110 53V113.046C110 113.689 110.414 114.26 111.026 114.459C111.507 114.616 112 114.258 112 113.753V110C112 102.268 118.268 96 126 96C133.732 96 140 102.268 140 110V122.893C140 123.494 140.387 124.028 140.959 124.214C141.473 124.382 142 123.999 142 123.459V122C142 114.82 147.82 109 155 109C162.18 109 168 114.82 168 122V132.006C168 132.615 168.392 133.154 168.971 133.343C169.537 133.528 170.128 133.143 170.248 132.56C171.376 127.102 176.209 123 182 123C188.627 123 194 128.373 194 135V211C194 227.569 180.569 241 164 241H116C104.874 241 94.9962 235.656 88.7934 227.395L37.616 177.83C35.3146 175.601 35.43 171.875 37.865 169.793C46.1981 162.667 58.1818 161.746 67.5058 167.515L82 176.482V75H82V53C82 51.067 82.3918 49.2255 83.1002 47.5506C84.8938 43.3101 88.7172 40.1372 93.3524 39.25Z" fill="#FE663B"/>
<path fill-rule="evenodd" clip-rule="evenodd" d="M110 75H82V53C82 45.268 88.268 39 96 39C103.732 39 110 45.268 110 53V75Z" fill="#1B2F2B"/>
<path fill-rule="evenodd" clip-rule="evenodd" d="M112 110C112 102.268 118.268 96 126 96C133.732 96 140 102.268 140 110V147C140 154.732 133.732 161 126 161C118.268 161 112 154.732 112 147V110ZM142 122C142 114.82 147.82 109 155 109C162.18 109 168 114.82 168 122V156C168 163.18 162.18 169 155 169C147.82 169 142 163.18 142 156V122ZM182 123C175.373 123 170 128.373 170 135V157C170 163.627 175.373 169 182 169C188.627 169 194 163.627 194 157V135C194 128.373 188.627 123 182 123Z" fill="#EA1F00"/>
<path fill-rule="evenodd" clip-rule="evenodd" d="M82 92.5474V97.8306C86.4144 99.2394 91.1184 99.9998 96 99.9998C100.882 99.9998 105.586 99.2394 110 97.8306V92.5474C105.632 94.1343 100.917 94.9998 96 94.9998C91.0832 94.9998 86.3685 94.1343 82 92.5474ZM82 84.9928V73.4956C85.9405 76.3303 90.7753 77.9998 96 77.9998C101.225 77.9998 106.06 76.3303 110 73.4956V84.9929C105.731 86.9245 100.991 87.9998 96 87.9998C91.0092 87.9998 86.2695 86.9245 82 84.9928Z" fill="#EB5111"/>
</g>
<defs>
<clipPath id="clip0">
<rect width="250" height="250" fill="white"/>
</clipPath>
</defs>
</svg>
