<?xml version="1.0" encoding="UTF-8"?> <svg xmlns="http://www.w3.org/2000/svg" id="uuid-04e66032-e912-44cd-b8b4-b9fe331ed334" viewBox="0 0 1475.24 637.89"><defs><clipPath id="uuid-7bcd1b0c-b918-4390-bbba-ddbd759a6d64"><path d="M0 0h1475.24v637.89H0z" class="uuid-6a252a4c-c0e8-439b-8556-f0530c206845"></path></clipPath><clipPath id="uuid-948c4676-5dd4-4ec0-a53d-690888b32eb8"><path d="M44.4 0h1340.95v610.34H44.4z" class="uuid-6a252a4c-c0e8-439b-8556-f0530c206845"></path></clipPath><clipPath id="uuid-6a45c17d-55c1-4f77-8d2b-fe3a378be45a"><path d="M1247.23 608.67c37.47-4.24 63.12-33.54 82.05-61.31 30.03-44.03 53.82-93.83 55.92-145.26 1.01-24.85-3.35-49.81-14.56-72.86-11.88-24.42-36.07-41.57-48.11-65.28-17.97-35.37-1.68-74.78-15.87-110.95-13.85-35.32-41.53-66.8-78.01-87.55-77.58-44.12-149.98-22.18-232.25-6.69C877.52 81.15 762.18 12.36 641.01 2.13 544.64-6 444.72 8.93 361.97 53.05c-25.11 13.39-48.46 29.05-73.83 42.11-26.49 13.63-54.45 17.13-81.54 27.78-50.96 20.04-84.57 70.6-105.55 112.18-42.4 84.01-92.83 209.23-19.18 291.26 95.03 105.84 296.28 71.28 430.23 72.98l615.36 7.8c38.39.49 81.57 5.84 119.76 1.52" class="uuid-6a252a4c-c0e8-439b-8556-f0530c206845"></path></clipPath><clipPath id="uuid-4c452c9b-8827-4919-afa9-2c4b98ccbb91"><path d="M857.56 546.56s6.72 22.47 6.64 22.84 2.54 2.68 2.54 2.68l7.48-.74 5.65-4.83s-6.52-20.81-6.78-24.31c-.05-.64-.59-.9-1.45-.9-3.86 0-14.07 5.26-14.07 5.26" class="uuid-6a252a4c-c0e8-439b-8556-f0530c206845"></path></clipPath><clipPath id="uuid-08b488f7-daf4-41ca-ac32-5f586ea43e08"><path d="M0 0h1475.24v637.89H0z" class="uuid-6a252a4c-c0e8-439b-8556-f0530c206845"></path></clipPath><clipPath id="uuid-bf42a091-cdae-42f0-aea0-4f88ef9418a4"><path d="M748.29 554.12s-.32 23.45-.52 23.78 1.62 3.32 1.62 3.32l7.36 1.53 6.84-2.91s.02-21.81.82-25.23c.3-1.26-1.82-1.66-4.6-1.66-3.86.12-7.71.51-11.51 1.17" class="uuid-6a252a4c-c0e8-439b-8556-f0530c206845"></path></clipPath><clipPath id="uuid-33c8d02d-f7e4-4bde-a8e5-3f61b5e7491e"><path d="M0 0h1475.24v637.89H0z" class="uuid-6a252a4c-c0e8-439b-8556-f0530c206845"></path></clipPath><clipPath id="uuid-ab9a7e67-2f0f-4ab1-a701-a19676200400"><path d="M56.27 335.33c-.84.01-1.7.03-2.56.07-.62.01-1.26.03-1.91.08-15.71.99-31.14 4.61-45.64 10.73-.32.12-.67.26-1.01.41 0 0-.09.46-.25 1.34-4.9 34.32.72 69.33 16.12 100.41.3.62.62 1.24.94 1.85 21.8 42.38 67.66 86.65 162.02 108.93.56.13 1.13.27 1.7.4h.01s.08-.52.2-1.4c1.79-13.5 13.71-121.66-55.59-189.18-.55-.55-1.1-1.08-1.66-1.61-9.31-8.8-19.59-16.5-30.65-22.95s-13.91-8.74-38.78-9.08h-2.94Z" class="uuid-6a252a4c-c0e8-439b-8556-f0530c206845"></path></clipPath><clipPath id="uuid-c7072fb0-489e-49bc-ac00-378f9931f6b0"><path d="M0 0h1475.24v637.89H0z" class="uuid-6a252a4c-c0e8-439b-8556-f0530c206845"></path></clipPath><clipPath id="uuid-eb3bcf4e-eeaa-4ffd-a597-6482542f3728"><path d="m88.92 468.52-.9.26c-.31.1-.63.2-.93.3-1.16.34-2.34.73-3.56 1.18-.31.11-.64.22-.95.35a74.324 74.324 0 0 0-21.24 12.88c-.15.12-.3.24-.45.38l.09.71a90.99 90.99 0 0 0 24.59 47.96c.26.26.51.52.78.78 17.94 17.78 48.3 32.57 99.5 28.33.31-.02.62-.05.93-.08 0 0-.04-.25-.13-.73-1.31-7.1-13.04-63.56-59.03-86.22-.37-.19-.74-.37-1.1-.54a88.695 88.695 0 0 0-19.21-6.54 41.76 41.76 0 0 0-18.4.99" class="uuid-6a252a4c-c0e8-439b-8556-f0530c206845"></path></clipPath><clipPath id="uuid-6be4a3a8-e785-4a98-b604-efcc6fe100bb"><path d="M0 0h1475.24v637.89H0z" class="uuid-6a252a4c-c0e8-439b-8556-f0530c206845"></path></clipPath><clipPath id="uuid-fd8041b8-7e5e-4c84-a2ac-9ded097c0b42"><path d="M1386.01 213.24c-37.48.51-58.43 13.66-58.43 13.66v.02a252.974 252.974 0 0 0-46.18 34.58c-.84.79-1.68 1.6-2.5 2.42-104.41 101.73-86.46 264.71-83.76 285.05.19 1.32.3 2.04.31 2.1h.02c.86-.19 1.72-.4 2.57-.6 142.18-33.58 211.27-100.28 244.12-164.14.48-.92.95-1.85 1.41-2.78a258.56 258.56 0 0 0 24.31-151.31c-.24-1.32-.38-2.02-.38-2.02-.52-.21-1.04-.42-1.52-.61a210.971 210.971 0 0 0-68.78-16.17c-.97-.07-1.94-.1-2.88-.11-1.3-.05-2.59-.08-3.85-.1h-4.45Z" class="uuid-6a252a4c-c0e8-439b-8556-f0530c206845"></path></clipPath><clipPath id="uuid-b3e7303c-8e32-42cb-9aac-ce6b89b30e8f"><path d="M0 0h1475.24v637.89H0z" class="uuid-6a252a4c-c0e8-439b-8556-f0530c206845"></path></clipPath><clipPath id="uuid-4a44b96c-1311-476c-9af2-d511307f066f"><path d="M1313.53 412.44c-9.99 2.17-19.7 5.47-28.94 9.85-.55.26-1.11.53-1.66.81-69.29 34.15-86.97 119.22-88.94 129.91-.13.73-.19 1.1-.19 1.1.47.05.94.08 1.4.12 77.15 6.39 122.9-15.89 149.93-42.69.4-.39.79-.78 1.17-1.17a136.96 136.96 0 0 0 37.05-72.26c.09-.71.14-1.08.14-1.08-.22-.2-.45-.39-.67-.56-9.5-8.22-20.32-14.79-32-19.41-.48-.19-.96-.37-1.44-.53-1.84-.67-3.6-1.25-5.36-1.77-.47-.16-.94-.31-1.41-.45l-1.35-.4a63.077 63.077 0 0 0-27.73-1.49" class="uuid-6a252a4c-c0e8-439b-8556-f0530c206845"></path></clipPath><clipPath id="uuid-f84a55c5-a56d-4bef-b586-eca8231c479b"><path d="M0 0h1475.24v637.89H0z" class="uuid-6a252a4c-c0e8-439b-8556-f0530c206845"></path></clipPath><clipPath id="uuid-a54bf928-3b1f-41a9-b21e-abb6eda5d1c5"><path d="m694.09 258.75 12.45 13.86c21.88-19.41 34.14-67.66 34.14-67.66l-22.08-12.94-24.5 66.74Z" class="uuid-6a252a4c-c0e8-439b-8556-f0530c206845"></path></clipPath><clipPath id="uuid-f23066a9-5bb0-4295-9a03-5863c389968b"><path d="M0 0h1475.24v637.89H0z" class="uuid-6a252a4c-c0e8-439b-8556-f0530c206845"></path></clipPath><clipPath id="uuid-30ca3c09-9360-4772-b6fd-6a15dd22b357"><path d="M829.48 177.23s8.8 34.94 8.8 42.1-38.31 39.39-38.31 39.39l9.84 9.83s46.08-14.07 56.35-38.07c6.87-16.06-9.88-63.18-9.88-63.18-.49-.05-.98-.07-1.47-.07-10.31 0-25.33 10.02-25.33 10.02" class="uuid-6a252a4c-c0e8-439b-8556-f0530c206845"></path></clipPath><clipPath id="uuid-2a3521ac-47f3-497e-a991-2ded78d67c45"><path d="M792.81 258.37c-8.43 3.64-15.79.6-16.08 3.16s12.59 3.53 12.59 3.53-6.78 4.35-9.18 5.82-9.29 4.54-8.36 6.37 15.24-5.37 15.24-5.37-6.13 5.03-4.55 6.85c1.27 1.47 9.31-3.53 9.31-3.53a67.775 67.775 0 0 0-5.79 4.76c-.94 1.21-.32 3.7 3.73 1.84 1.86-.78 3.65-1.73 5.34-2.83a34.874 34.874 0 0 0-3.93 4.04c-.52.97.3 3.42 3.43 1.31 5.5-3.71 15.67-11.99 19.35-18.92l-6.68-8.34s-1.19-.05-2.93-.05c-3.38 0-8.8.2-11.49 1.36" class="uuid-6a252a4c-c0e8-439b-8556-f0530c206845"></path></clipPath><clipPath id="uuid-ae55afc0-ef51-4466-8a63-4582c100ca3f"><path d="M752.42 77.07c-4.08 3.44.29 7.48 3.14 8.31l.68-6.59s-1.49-2.07-2.91-2.07c-.33 0-.66.12-.91.34" class="uuid-6a252a4c-c0e8-439b-8556-f0530c206845"></path></clipPath><clipPath id="uuid-a2e2042a-dfa0-4b08-b450-6698cc187678"><path d="M754.8 66.2c.01.33.04.67.06 1h-.03c.35 8.83-4.03 39.58 15.63 40.09h.03a2.86 2.86 0 0 1 2.8 2.66l.73 11.34s7.31 6.55 22.79-2.49l-1.09-5.16a36.806 36.806 0 0 1 2.6-23.19c2.05-4.37 3.95-9.6 6.1-15.71 5.28-13.2-1.13-28.18-14.33-33.47a25.57 25.57 0 0 0-8.84-1.83h-.71c-14.22-.01-25.76 11.51-25.77 25.73 0 .34 0 .69.02 1.03" class="uuid-6a252a4c-c0e8-439b-8556-f0530c206845"></path></clipPath><clipPath id="uuid-5f98e224-44ec-4eac-a682-2af2b9d303e5"><path d="M0 0h1475.24v637.89H0z" class="uuid-6a252a4c-c0e8-439b-8556-f0530c206845"></path></clipPath><clipPath id="uuid-e9b513bb-5d0c-4b26-870e-8ac50ed093f0"><path d="M798.8 80.37c-.85.37-1.54 1.05-1.93 1.89-2.04 4.51-.17 6.23-.17 6.23 6.45 3.92 12.47-4.71 9.19-7.75-.92-.85-2.14-1.3-3.39-1.27-1.28.04-2.54.34-3.7.89" class="uuid-6a252a4c-c0e8-439b-8556-f0530c206845"></path></clipPath><clipPath id="uuid-aad80fb8-54e0-497e-81a7-66af8a4a8c0e"><path d="M0 0h1475.24v637.89H0z" class="uuid-6a252a4c-c0e8-439b-8556-f0530c206845"></path></clipPath><clipPath id="uuid-246d2597-8541-4ec5-9881-b4baff98e2e3"><path d="M414.74 546.5c.73 4.06-.6 29.62-.6 29.62l7.83 3.84 8.72-1.34s2.31-3.39 2.1-3.79.87-27.91.87-27.91-9.31-2.12-14.88-2.12c-2.52 0-4.28.44-4.05 1.7" class="uuid-6a252a4c-c0e8-439b-8556-f0530c206845"></path></clipPath><clipPath id="uuid-1e78dcf8-0245-4579-a4af-c4e8f67edc7d"><path d="M0 0h1475.24v637.89H0z" class="uuid-6a252a4c-c0e8-439b-8556-f0530c206845"></path></clipPath><clipPath id="uuid-87de3b3d-7477-4788-94de-6b4a17d6ea9a"><path d="M343.28 538.67c.15 4.12-4.74 29.25-4.74 29.25l7.22 4.9 8.82-.11s2.76-3.03 2.61-3.46 4.77-27.51 4.77-27.51-11.38-4.34-16.38-4.34c-1.43 0-2.34.36-2.3 1.27" class="uuid-6a252a4c-c0e8-439b-8556-f0530c206845"></path></clipPath><clipPath id="uuid-9b78bce0-1407-4e57-97ff-9d9d22f099bf"><path d="M0 0h1475.24v637.89H0z" class="uuid-6a252a4c-c0e8-439b-8556-f0530c206845"></path></clipPath><clipPath id="uuid-98695043-b531-4c6e-9db7-019b2b0300ae"><path d="M490.64 300.09c-1.09 6.93 1.86 19.6 4.13 25.09s3.18 4.27 3.32 3.3-1.26-8.55-1.26-8.55c.7 2.62 1.69 5.16 2.93 7.58 1.9 3.51 3.23 4.11 3.73 3.09S501.2 319 501.2 319s4.58 12.36 5.95 11.28-.76-11.1-.76-11.1 3.66 11.55 5.32 10.73 1.07-5.41.14-7.75-2.74-10.23-2.74-10.23 6.84 3.43 8 1.44-3.58-3.04-6.14-6.09-11.24-11.6-11.24-11.6l-9.11 4.39Z" class="uuid-6a252a4c-c0e8-439b-8556-f0530c206845"></path></clipPath><clipPath id="uuid-68aa90ef-9e4c-47ab-abcd-ba448d6fd4e4"><path d="M0 0h1475.24v637.89H0z" class="uuid-6a252a4c-c0e8-439b-8556-f0530c206845"></path></clipPath><clipPath id="uuid-60ba1bcc-82fe-48c9-96b9-3a6dae1777b0"><path d="m305.45 113.16.57 6.99c2.94-.96 7.74-5.47 3.36-8.92-.26-.21-.58-.33-.91-.33-1.5 0-3.02 2.26-3.02 2.26" class="uuid-6a252a4c-c0e8-439b-8556-f0530c206845"></path></clipPath><clipPath id="uuid-59f185c8-efdf-427a-b166-2917328d9d90"><path d="M277.98 72.92c-14.83.9-26.13 13.65-25.23 28.48.19 3.16.94 6.27 2.21 9.18 3.65 9.39 6.67 16.96 10.45 22.48 3.87 5.55 5.5 12.37 4.55 19.07l-1.01 6.77c15.6 7.93 22.49 1.45 22.49 1.45l.11-16.95c16.95-1.91 14.89-33.17 14.95-42.41h-.03c.02-.34.03-.69.03-1.04.1-14.86-11.87-26.99-26.73-27.08h-.18c-.54 0-1.08.02-1.63.05" class="uuid-6a252a4c-c0e8-439b-8556-f0530c206845"></path></clipPath><clipPath id="uuid-74f71824-a299-40fb-bdee-1859776d7e93"><path d="M0 0h1475.24v637.89H0z" class="uuid-6a252a4c-c0e8-439b-8556-f0530c206845"></path></clipPath><clipPath id="uuid-fa431b7d-2a8e-4d26-aec3-02f59e1dd0f0"><path d="M253.65 116.9c-3.33 3.28 3.27 12.09 9.86 7.78 0 0 1.89-1.86-.39-6.5a4 4 0 0 0-2.08-1.91c-1.16-.5-2.41-.77-3.67-.81a5.11 5.11 0 0 0-3.72 1.45" class="uuid-6a252a4c-c0e8-439b-8556-f0530c206845"></path></clipPath><clipPath id="uuid-d55c0f11-4206-407c-9595-657ca4f3504e"><path d="M292.63 547.08s-3.18 37.28.33 41.74c2 2.54 45.92 11.82 47.76 6s-31.15-17.31-32.57-28.51a70.17 70.17 0 0 1 .86-21.4l-16.38 2.17Z" class="uuid-6a252a4c-c0e8-439b-8556-f0530c206845"></path></clipPath><clipPath id="uuid-abf82982-8bd6-4156-91f8-964a6a249020"><path d="M183.62 566.38c1.27 2.98 41.21 23.44 44.51 18.31s-25.52-24.87-23.96-36.05c1.09-7.1 3.26-13.99 6.44-20.43l-16.38-2.19s-12.84 35.15-10.62 40.36" class="uuid-6a252a4c-c0e8-439b-8556-f0530c206845"></path></clipPath><clipPath id="uuid-a96152c8-442b-48fb-97b5-c7355134240d"><path d="M0 0h1475.24v637.89H0z" class="uuid-6a252a4c-c0e8-439b-8556-f0530c206845"></path></clipPath><clipPath id="uuid-070ee0ee-84ca-4b82-a229-9a73f183c59c"><path d="M246.54 329.3c.09 3.81 1.6 14.44 2.71 20.31.63 3.33 2.72 2.3 3 1.36.17-1.68.2-3.38.09-5.07.37 1.78.89 3.52 1.57 5.2 1.38 3.76 3.36 2.58 3.54 1.22-.08-2.25-.29-4.49-.62-6.71 0 0 1.9 8.3 3.65 8.18 2.16-.15 1.49-7.25 1.49-7.25s4.45 13.7 6.22 13.14-.64-6.91-1.22-9.37-2.1-9.55-2.1-9.55 8.78 7.62 10.23 5.8-5.15-4.59-8.17-12.27c-1.46-3.72-10.12-10.75-10.12-10.75l-10.27 5.75Z" class="uuid-6a252a4c-c0e8-439b-8556-f0530c206845"></path></clipPath><clipPath id="uuid-8226ed6a-9165-42d1-a740-3829ccb5cfb2"><path d="M0 0h1475.24v637.89H0z" class="uuid-6a252a4c-c0e8-439b-8556-f0530c206845"></path></clipPath><clipPath id="uuid-15c5f260-90c0-4536-ac7c-16a5b3a461b6"><path d="M358.92 221.75s-5.98 11.46-4.15 12.25 8.37-8.87 8.37-8.87-6.89 11.23-4.36 12.54 9.53-11.03 9.53-11.03-4.38 9.92-3.07 11.13 7.86-9.56 7.86-9.56-2.37 5.27-1.32 6.84 5.76-8.55 5.23-10.56c-.36-1.4-4.96-5.96-10.53-5.96-2.85.04-5.56 1.2-7.56 3.23" class="uuid-6a252a4c-c0e8-439b-8556-f0530c206845"></path></clipPath><clipPath id="uuid-234767e8-0b52-4137-a0bd-9908c26065d8"><path d="m421.26 88.87 1.62 6.82c2.87-1.26 6.9-6.1 2.15-9.15a1.46 1.46 0 0 0-.81-.25c-1.57 0-2.96 2.58-2.96 2.58" class="uuid-6a252a4c-c0e8-439b-8556-f0530c206845"></path></clipPath><clipPath id="uuid-e6c4b5a7-a1ac-4937-aec3-847847bb3ee3"><path d="M389.6 51.03c-14.86 2.37-24.98 16.34-22.6 31.19.51 3.17 1.57 6.22 3.13 9.02 3.09 6.12 5.8 11.35 8.55 15.65 4.52 7.14 6.6 15.56 5.92 23.98l-.48 6.26c17.48 7.36 24.3.52 24.3.52l-.78-13.75a3.027 3.027 0 0 1 2.57-3.18h.03c20.55-3.23 11.74-34.89 10.89-44.21h-.03c-.02-.34-.04-.69-.07-1.05-1.28-14.02-13.02-24.76-27.1-24.77-1.45 0-2.9.11-4.33.34" class="uuid-6a252a4c-c0e8-439b-8556-f0530c206845"></path></clipPath><clipPath id="uuid-f5aecf7a-3469-426d-9626-f4530b418c56"><path d="M0 0h1475.24v637.89H0z" class="uuid-6a252a4c-c0e8-439b-8556-f0530c206845"></path></clipPath><clipPath id="uuid-8441d5fa-d812-4be2-a25f-c97b588a6414"><path d="M369.43 97.74c-3.03 3.64 4.48 11.86 10.71 6.87 0 0 1.72-2.07-1.03-6.51a4.08 4.08 0 0 0-2.29-1.72c-.99-.31-2.01-.47-3.05-.49a5.42 5.42 0 0 0-4.34 1.86" class="uuid-6a252a4c-c0e8-439b-8556-f0530c206845"></path></clipPath><clipPath id="uuid-5587780e-9b54-4eca-9f7b-c37a595d6b23"><path d="M418.93 245.29c-3.95.44-15.89 2.9-15.89 2.9l-1.4 10.03c5.16 4.76 17.34 9.33 23.16 10.5s5.31-.27 4.59-.93-7.81-3.7-7.81-3.7c2.57.87 5.23 1.46 7.93 1.77 3.97.37 5.21-.4 4.64-1.39s-10.92-4.54-10.92-4.54 12.82 3.05 12.69 1.31-9.65-5.53-9.65-5.53 11.64 3.36 11.88 1.53-3.91-3.89-6.37-4.42-10.03-3.4-10.03-3.4 6.65-3.78 5.64-5.85a1.1 1.1 0 0 0-1.08-.67c-1.58 0-4.35 2.06-7.39 2.4" class="uuid-6a252a4c-c0e8-439b-8556-f0530c206845"></path></clipPath><clipPath id="uuid-412fb0c3-4970-4ee2-bd4c-d141dfd36908"><path d="M0 0h1475.24v637.89H0z" class="uuid-6a252a4c-c0e8-439b-8556-f0530c206845"></path></clipPath><clipPath id="uuid-67d87a89-9b11-47f7-9a82-02a383073246"><path d="M925.59 304.49c-4.09 6.21-6.79 19.73-7.01 26.03s1.2 5.51 1.76 4.64 2.53-8.8 2.53-8.8c-.47 2.84-.63 5.72-.49 8.6.3 4.22 1.31 5.38 2.25 4.62s2.88-12.2 2.88-12.2-.99 13.94.8 13.5 4.13-11.05 4.13-11.05-1.52 12.75.43 12.69 3.4-4.76 3.53-7.42 1.83-11.07 1.83-11.07 5.1 6.31 7.09 4.9-2.12-4.5-3.26-8.56-5.76-16.12-5.76-16.12l-10.72.25Z" class="uuid-6a252a4c-c0e8-439b-8556-f0530c206845"></path></clipPath><clipPath id="uuid-d7d0007b-abf5-4c94-980e-394b99136e8f"><path d="M1028.78 378.45s8.23 58.91 8.82 83.53 10.58 79.88 17.64 109.27l13.91 1.83-3.33-202.86-37.03 8.23Z" class="uuid-6a252a4c-c0e8-439b-8556-f0530c206845"></path></clipPath><clipPath id="uuid-83cc7007-18c6-4b2b-b9fc-8d3319229df2"><path d="m1029.54 73.39 2.26 6.55c2.7-1.51 6.19-6.68 1.22-9.21-.21-.11-.44-.17-.68-.17-1.61 0-2.8 2.83-2.8 2.83" class="uuid-6a252a4c-c0e8-439b-8556-f0530c206845"></path></clipPath><clipPath id="uuid-44327823-9625-418d-b5fa-0ff89d4f5295"><path d="M994.7 39.27c-14.38 3.78-22.97 18.51-19.18 32.89.81 3.07 2.15 5.97 3.97 8.57 3.64 5.71 6.81 10.59 9.94 14.55a38.424 38.424 0 0 1 8.16 23l.15 6.56c17.91 5.53 23.78-3.95 23.78-3.95l-1.95-11.73c-.25-1.53.71-3 2.21-3.38h.03c19.9-5.2 8.14-35.47 6.39-44.55h-.02c-.05-.33-.1-.67-.17-1.02-2.8-14.6-16.9-24.16-31.5-21.37-.61.12-1.21.25-1.81.41" class="uuid-6a252a4c-c0e8-439b-8556-f0530c206845"></path></clipPath><clipPath id="uuid-59e5b746-a36a-4968-ac7f-16f97a8352b3"><path d="M0 0h1475.24v637.89H0z" class="uuid-6a252a4c-c0e8-439b-8556-f0530c206845"></path></clipPath><clipPath id="uuid-8e094dd0-cac1-4bf6-ad07-99e43a13dc02"><path d="M979.43 87.19c-2.62 3.87 5.56 11.23 11.2 5.71 0 0 1.49-2.2-1.65-6.3-.6-.77-1.46-1.29-2.42-1.47-.72-.14-1.45-.22-2.18-.22-1.93-.13-3.8.73-4.95 2.29" class="uuid-6a252a4c-c0e8-439b-8556-f0530c206845"></path></clipPath><linearGradient id="uuid-78ec54de-db2d-4f15-a63b-7b86cce1a7a2" x1="54.96" x2="55.96" y1="703.4" y2="703.4" gradientTransform="matrix(1377.98 0 0 -638.22 -75725.72 449236.16)" gradientUnits="userSpaceOnUse"><stop offset="0" stop-color="#927cae"></stop><stop offset="1" stop-color="#a3c7cb"></stop></linearGradient><linearGradient id="uuid-b0da9d56-527d-46a4-9cb7-8df4d45bfa2a" x1="14.08" x2="14.1" y1="701.42" y2="701.42" gradientTransform="matrix(22.3 0 0 -30.78 -314.11 22147.82)" gradientUnits="userSpaceOnUse"><stop offset="0" stop-color="#e5908c"></stop><stop offset="0" stop-color="#eab0af"></stop><stop offset="1" stop-color="#eab0af"></stop></linearGradient><linearGradient id="uuid-3a33486e-fcac-4fa2-9a56-947936446286" x1="8.12" x2="8.15" y1="701.35" y2="701.35" gradientTransform="matrix(17.12 0 0 -29.8 -139.07 21466.75)" gradientUnits="userSpaceOnUse"><stop offset="0" stop-color="#e5908c"></stop><stop offset="0" stop-color="#eab0af"></stop><stop offset="1" stop-color="#eab0af"></stop></linearGradient><linearGradient id="uuid-667595b6-da92-4321-ad9a-6baaef1f23f9" x1="54.72" x2="54.73" y1="703.21" y2="703.21" gradientTransform="matrix(199.61 0 0 -224.21 -10923.33 158117.99)" gradientUnits="userSpaceOnUse"><stop offset="0" stop-color="#cd5096"></stop><stop offset=".89" stop-color="#8a4392"></stop><stop offset="1" stop-color="#8a4392"></stop></linearGradient><linearGradient id="uuid-e862f330-87e3-4810-bcc1-4f6dabdf754e" x1="54.19" x2="54.19" y1="703.15" y2="703.15" gradientTransform="matrix(148.71 0 0 -130.47 -8058.52 92259.71)" gradientUnits="userSpaceOnUse"><stop offset="0" stop-color="#f0c732"></stop><stop offset="1" stop-color="#ce5998"></stop></linearGradient><linearGradient id="uuid-75aa3806-3614-4788-b765-0c44e7423011" x1="54.82" x2="55.82" y1="703.31" y2="703.31" gradientTransform="matrix(300.76 0 0 -337.84 -15312.26 237987.2)" gradientUnits="userSpaceOnUse"><stop offset="0" stop-color="#cd5096"></stop><stop offset=".89" stop-color="#8a4392"></stop><stop offset="1" stop-color="#8a4392"></stop></linearGradient><linearGradient id="uuid-709cad06-fc88-4043-a08d-6408f526b1e6" x1="48.55" x2="48.56" y1="703.65" y2="703.65" gradientTransform="matrix(196.62 0 0 -224.09 -9546.72 158170.19)" gradientUnits="userSpaceOnUse"><stop offset="0" stop-color="#f0c732"></stop><stop offset="1" stop-color="#ce5998"></stop></linearGradient><linearGradient id="uuid-e4e37328-fb38-4f6f-ba85-3e56fffff3cb" x1="38.92" x2="38.93" y1="702.71" y2="702.71" gradientTransform="matrix(46.58 0 0 -80.6 -1813.03 56871.12)" gradientUnits="userSpaceOnUse"><stop offset="0" stop-color="#e5908c"></stop><stop offset="0" stop-color="#eab0af"></stop><stop offset="1" stop-color="#eab0af"></stop></linearGradient><linearGradient id="uuid-33fc3ac4-4f88-49be-8d51-b734c7900d2f" x1="43.3" x2="43.3" y1="702.87" y2="702.87" gradientTransform="matrix(73.06 0 0 -101.33 -3163.39 71439.53)" gradientUnits="userSpaceOnUse"><stop offset="0" stop-color="#e5908c"></stop><stop offset="0" stop-color="#eab0af"></stop><stop offset="1" stop-color="#eab0af"></stop></linearGradient><linearGradient id="uuid-088d6a5e-ab23-49af-b431-ac6a5ef2bc17" x1="35.82" x2="35.83" y1="701.32" y2="701.32" gradientTransform="matrix(43.07 0 0 -29.42 -1542.84 20904.69)" gradientUnits="userSpaceOnUse"><stop offset="0" stop-color="#e5908c"></stop><stop offset="0" stop-color="#eab0af"></stop><stop offset="1" stop-color="#eab0af"></stop></linearGradient><linearGradient id="uuid-e09466b6-80a1-4b25-b8e0-bcc0764e6ff9" x1="-46.73" x2="-46.67" y1="696.1" y2="696.1" gradientTransform="matrix(7.9 0 0 -8.65 369 6103.73)" gradientUnits="userSpaceOnUse"><stop offset="0" stop-color="#e5908c"></stop><stop offset="0" stop-color="#eab0af"></stop><stop offset="1" stop-color="#eab0af"></stop></linearGradient><linearGradient id="uuid-c17cb32f-882f-4613-b967-1560d445fb08" x1="40.57" x2="40.58" y1="702.78" y2="702.78" gradientTransform="matrix(55.85 0 0 -88.39 -2265.77 62202)" gradientUnits="userSpaceOnUse"><stop offset="0" stop-color="#e5908c"></stop><stop offset="0" stop-color="#eab0af"></stop><stop offset="1" stop-color="#eab0af"></stop></linearGradient><linearGradient id="uuid-bca43edd-f81d-4961-ac4f-03904bb10ce3" x1="-4.26" x2="-4.23" y1="698.55" y2="698.55" gradientTransform="matrix(14.34 0 0 -12.93 61.08 9118.9)" gradientUnits="userSpaceOnUse"><stop offset="0" stop-color="#e5908c"></stop><stop offset="0" stop-color="#eab0af"></stop><stop offset="1" stop-color="#eab0af"></stop></linearGradient><linearGradient id="uuid-87a68ad2-63fc-4488-88ce-4bd12b3a2603" x1="30.97" x2="31" y1="701.68" y2="701.68" gradientTransform="matrix(19.53 0 0 -35.16 -604.79 25235.55)" gradientUnits="userSpaceOnUse"><stop offset="0" stop-color="#e5908c"></stop><stop offset="0" stop-color="#eab0af"></stop><stop offset="1" stop-color="#eab0af"></stop></linearGradient><linearGradient id="uuid-0aa4baa3-a8b5-4cf1-97e8-5e025066e089" x1="38.2" x2="38.22" y1="701.69" y2="701.69" gradientTransform="matrix(23.43 0 0 -35.42 -894.9 25409.07)" gradientUnits="userSpaceOnUse"><stop offset="0" stop-color="#e5908c"></stop><stop offset="0" stop-color="#eab0af"></stop><stop offset="1" stop-color="#eab0af"></stop></linearGradient><linearGradient id="uuid-acc4cdd6-7572-401c-ac28-60d590691b38" x1="36.05" x2="36.07" y1="701.72" y2="701.72" gradientTransform="matrix(28.74 0 0 -35.93 -1036.37 25526.4)" gradientUnits="userSpaceOnUse"><stop offset="0" stop-color="#e5908c"></stop><stop offset="0" stop-color="#eab0af"></stop><stop offset="1" stop-color="#eab0af"></stop></linearGradient><linearGradient id="uuid-58e05f14-5f88-468c-8326-786b6bd158c9" x1="11.61" x2="11.66" y1="696.58" y2="696.58" gradientTransform="matrix(8.31 0 0 -9.25 -96.43 6561.01)" gradientUnits="userSpaceOnUse"><stop offset="0" stop-color="#e5908c"></stop><stop offset="0" stop-color="#eab0af"></stop><stop offset="1" stop-color="#eab0af"></stop></linearGradient><linearGradient id="uuid-2847a1ce-b06e-47c4-8a21-7b95805207bb" x1="49.51" x2="49.52" y1="702.82" y2="702.82" gradientTransform="matrix(56.01 0 0 -93.96 -2773.28 66158.82)" gradientUnits="userSpaceOnUse"><stop offset="0" stop-color="#e5908c"></stop><stop offset="0" stop-color="#eab0af"></stop><stop offset="1" stop-color="#eab0af"></stop></linearGradient><linearGradient id="uuid-80c30e31-5f42-4ea8-a973-d2c9403cdb49" x1="34.75" x2="34.78" y1="698.77" y2="698.77" gradientTransform="matrix(15.08 0 0 -13.53 -524.13 9577.98)" gradientUnits="userSpaceOnUse"><stop offset="0" stop-color="#e5908c"></stop><stop offset="0" stop-color="#eab0af"></stop><stop offset="1" stop-color="#eab0af"></stop></linearGradient><linearGradient id="uuid-5d7dd8c5-40d9-4386-917b-cf259bb89ae8" x1="48.51" x2="48.52" y1="702.35" y2="702.35" gradientTransform="matrix(53.11 0 0 -55.74 -2576.43 39718.35)" gradientUnits="userSpaceOnUse"><stop offset="0" stop-color="#e5908c"></stop><stop offset="0" stop-color="#eab0af"></stop><stop offset="1" stop-color="#eab0af"></stop></linearGradient><linearGradient id="uuid-590d5c71-04a1-4338-8d4e-7808a7c3de0a" x1="50.28" x2="50.28" y1="702.5" y2="702.5" gradientTransform="matrix(50.04 0 0 -63.81 -2515.58 45381.44)" gradientUnits="userSpaceOnUse"><stop offset="0" stop-color="#e5908c"></stop><stop offset="0" stop-color="#eab0af"></stop><stop offset="1" stop-color="#eab0af"></stop></linearGradient><linearGradient id="uuid-d87179ce-2d4a-47d2-8a22-30379e04e420" x1="44.95" x2="44.97" y1="701.76" y2="701.76" gradientTransform="matrix(30.01 0 0 -36.7 -1349.06 26096.35)" gradientUnits="userSpaceOnUse"><stop offset="0" stop-color="#e5908c"></stop><stop offset="0" stop-color="#eab0af"></stop><stop offset="1" stop-color="#eab0af"></stop></linearGradient><linearGradient id="uuid-b7344d0b-bfce-4c0b-a048-8a4b22861946" x1="38.42" x2="38.43" y1="700.37" y2="700.37" gradientTransform="matrix(24.6 0 0 -20.44 -945.12 14547.81)" gradientUnits="userSpaceOnUse"><stop offset="0" stop-color="#e5908c"></stop><stop offset="0" stop-color="#eab0af"></stop><stop offset="1" stop-color="#eab0af"></stop></linearGradient><linearGradient id="uuid-18debddb-bdd8-4c89-a162-155ed782c3ec" x1="-.89" x2="-.84" y1="696.69" y2="696.69" gradientTransform="matrix(8.52 0 0 -9.4 7.61 6637.08)" gradientUnits="userSpaceOnUse"><stop offset="0" stop-color="#e5908c"></stop><stop offset="0" stop-color="#eab0af"></stop><stop offset="1" stop-color="#eab0af"></stop></linearGradient><linearGradient id="uuid-6c5d297f-0242-49ad-b70f-b8b8d00ebe20" x1="48.43" x2="48.43" y1="702.82" y2="702.82" gradientTransform="matrix(64.14 0 0 -93.8 -3106.16 66019.77)" gradientUnits="userSpaceOnUse"><stop offset="0" stop-color="#e5908c"></stop><stop offset="0" stop-color="#eab0af"></stop><stop offset="1" stop-color="#eab0af"></stop></linearGradient><linearGradient id="uuid-77aec4d3-213e-4d0a-bbfc-e46e65562e63" x1="27.74" x2="27.76" y1="698.83" y2="698.83" gradientTransform="matrix(15.46 0 0 -13.72 -428.68 9688.65)" gradientUnits="userSpaceOnUse"><stop offset="0" stop-color="#e5908c"></stop><stop offset="0" stop-color="#eab0af"></stop><stop offset="1" stop-color="#eab0af"></stop></linearGradient><linearGradient id="uuid-f5af37d9-8c10-4792-8c8c-8f34f05218ee" x1="42.58" x2="42.59" y1="701.13" y2="701.13" gradientTransform="matrix(36.76 0 0 -26.99 -1564.99 19179.15)" gradientUnits="userSpaceOnUse"><stop offset="0" stop-color="#e5908c"></stop><stop offset="0" stop-color="#eab0af"></stop><stop offset="1" stop-color="#eab0af"></stop></linearGradient><linearGradient id="uuid-8024cfe6-362b-44b0-8ca6-322d9811a514" x1="21.4" x2="21.42" y1="701.83" y2="701.83" gradientTransform="matrix(28.97 0 0 -38.33 -620.05 27227.37)" gradientUnits="userSpaceOnUse"><stop offset="0" stop-color="#e5908c"></stop><stop offset="0" stop-color="#eab0af"></stop><stop offset="1" stop-color="#eab0af"></stop></linearGradient><linearGradient id="uuid-20c99b84-d832-4785-9c9e-dbf5ed87b2a6" x1="28.15" x2="28.16" y1="703.18" y2="703.18" gradientTransform="matrix(40.36 0 0 -202.86 -1136.18 143121.07)" gradientUnits="userSpaceOnUse"><stop offset="0" stop-color="#e5908c"></stop><stop offset="0" stop-color="#eab0af"></stop><stop offset="1" stop-color="#eab0af"></stop></linearGradient><linearGradient id="uuid-4f58c347-5940-4963-962a-b3d5c9169877" x1="-73.34" x2="-73.29" y1="696.68" y2="696.68" gradientTransform="matrix(8.45 0 0 -9.38 619.73 6609.38)" gradientUnits="userSpaceOnUse"><stop offset="0" stop-color="#e5908c"></stop><stop offset="0" stop-color="#eab0af"></stop><stop offset="1" stop-color="#eab0af"></stop></linearGradient><linearGradient id="uuid-aa9727d1-1ac7-40db-b149-7d4ef290310f" x1="39.92" x2="39.93" y1="702.8" y2="702.8" gradientTransform="matrix(68.22 0 0 -91.99 -2723.89 64734.64)" gradientUnits="userSpaceOnUse"><stop offset="0" stop-color="#e5908c"></stop><stop offset="0" stop-color="#eab0af"></stop><stop offset="1" stop-color="#eab0af"></stop></linearGradient><linearGradient id="uuid-82a37ecf-0f07-403a-b81e-fc5cf746a6cc" x1="-12.37" x2="-12.34" y1="698.77" y2="698.77" gradientTransform="matrix(15.31 0 0 -13.52 189.48 9537.57)" gradientUnits="userSpaceOnUse"><stop offset="0" stop-color="#e5908c"></stop><stop offset="0" stop-color="#eab0af"></stop><stop offset="1" stop-color="#eab0af"></stop></linearGradient><style>.uuid-6a252a4c-c0e8-439b-8556-f0530c206845{fill:none}.uuid-84108cde-4e52-4647-947b-33f4eaff4017{fill:#fff}.uuid-2b3d3713-d439-42d8-9041-cbccacf9abed{fill:#c01677}.uuid-197a7934-3fad-4eb5-9547-dc4c48da6714{fill:#c9b8a2}.uuid-f0386624-5691-441d-891b-6f989d56e4b5{fill:#152e5b}.uuid-84098a47-2955-4058-a912-ced3b7f92ce9{fill:#13676b}.uuid-46b8d054-8941-4600-b48b-034d43b90d0c{fill:#0b253f}.uuid-bac8badc-97fe-4f5b-96d0-2b14f47f596d{fill:#1c6ba1}.uuid-f4b67e1c-a2a7-4ba7-8816-c31b62c4afab{fill:#1a6087}.uuid-62a0e36b-e193-4f80-b515-dc7df07966b1{fill:#99becd}</style></defs><g id="uuid-7ef26f0a-48e0-4588-8ff0-3fda23327e94" clip-path="url(#uuid-7bcd1b0c-b918-4390-bbba-ddbd759a6d64)"><g id="uuid-f7fc13b5-9c37-43ac-9f8c-0bb1a11b7820"><g id="uuid-a41964ee-84e3-4b87-bf69-2356afdae387" opacity=".2"><g id="uuid-083e94d2-8150-4db1-bf87-a06d8a7c8892" clip-path="url(#uuid-948c4676-5dd4-4ec0-a53d-690888b32eb8)"><g id="uuid-8d56f18e-b7fe-4163-8a26-51aca7354f9d"><g id="uuid-3d886822-7dba-41f5-8072-e353f7652238" clip-path="url(#uuid-6a45c17d-55c1-4f77-8d2b-fe3a378be45a)"><g id="uuid-d3079de9-a3dd-4920-88f3-c5d792bf671f"><path id="uuid-3e976711-6c22-4f60-9b49-191a230b1ea7" fill="url(#uuid-78ec54de-db2d-4f15-a63b-7b86cce1a7a2)" d="M8.23-6.01h1377.98v638.22H8.23z"></path></g></g></g></g></g><path id="uuid-37de5508-cfeb-48a3-8c64-16538d280b88" fill="#cddce8" d="M1349.34 583.26c0-30.17-275.8-54.63-616.02-54.63s-616.01 24.46-616.01 54.63 275.8 54.63 616.01 54.63 616.02-24.46 616.02-54.63"></path><path id="uuid-93ad004d-26e6-4635-ba3f-5b33a09cabf9" d="m1248.71 341.29-12.19-7.03s37.48-50.71 64.72-153.54c0 0 3.11 85.92-52.54 160.57" class="uuid-62a0e36b-e193-4f80-b515-dc7df07966b1"></path><path id="uuid-896097e8-53ec-4995-81c6-220c28d4a3d5" d="M1225.18 239.8c45.35 11.1 28.12 57.85 28.12 57.85-35.33-1.69-28.12-57.85-28.12-57.85" class="uuid-62a0e36b-e193-4f80-b515-dc7df07966b1"></path><path id="uuid-a86e6a33-c850-4132-95f4-c111a68d11e7" d="M1330.33 290.66s-27.02 27.28-52.92 12.26c0 0 14.28-40.96 52.92-12.26" class="uuid-62a0e36b-e193-4f80-b515-dc7df07966b1"></path><path id="uuid-84158e50-cc41-4a67-94e9-668c4f63d9c3" d="M1244.03 202.52c43.65 16.62 25.06 55.17 25.06 55.17-26.41-13.76-25.06-55.17-25.06-55.17" class="uuid-62a0e36b-e193-4f80-b515-dc7df07966b1"></path><path id="uuid-fa0c7391-7e50-4f9e-bb5b-68f1b721e5dd" d="M1331.07 184.95c-3.25 25.87-22.56 23.32-22.56 23.32a28.294 28.294 0 0 1 22.56-23.32" class="uuid-62a0e36b-e193-4f80-b515-dc7df07966b1"></path><path id="uuid-c9114b3d-b6b2-4865-806d-6c883a05fe4c" d="M1332.37 223.61s-13.86 26.08-32.4 17.1c0 0 8.24-26.25 32.4-17.1" class="uuid-62a0e36b-e193-4f80-b515-dc7df07966b1"></path><path id="uuid-4041889a-be7a-4927-9366-96489ea8fb3b" d="M1329.48 253.79s-17.57 24.23-37.06 15.45c0 0 7.32-26.08 37.06-15.45" class="uuid-62a0e36b-e193-4f80-b515-dc7df07966b1"></path><path id="uuid-17c380a4-f447-46c6-8e76-d99887bee472" d="M1309.95 178.53a46.64 46.64 0 0 1 23.78-35.88s.45 33.61-23.78 35.88" class="uuid-62a0e36b-e193-4f80-b515-dc7df07966b1"></path><path id="uuid-36180a71-1bcb-4560-bc51-e82285f75719" d="M1284.81 144.72c21.34 15.94 8.87 39.83 8.87 39.83-17.72-10.96-8.87-39.83-8.87-39.83" class="uuid-62a0e36b-e193-4f80-b515-dc7df07966b1"></path><path id="uuid-83d2528a-d3f0-480f-a74e-a5dd99cd767e" d="M1305.98 153.98s-14.96-23.77 12.72-67.73c0 0 13.87 44.03-12.72 67.72" class="uuid-62a0e36b-e193-4f80-b515-dc7df07966b1"></path><path id="uuid-f93f3aba-49b7-4234-8c7f-7cc9c5a999b4" d="M1269.45 180.08c25.85 20.04 12.85 42.98 12.85 42.98-18.14-11.96-12.85-42.98-12.85-42.98" class="uuid-62a0e36b-e193-4f80-b515-dc7df07966b1"></path></g></g><g id="uuid-7103ab67-036d-4834-9dce-df1ea33a5759" clip-path="url(#uuid-4c452c9b-8827-4919-afa9-2c4b98ccbb91)"><g id="uuid-396ed461-9848-4ab0-b026-8f73ea294ce6"><path id="uuid-1d8bb7ed-2095-473d-84c9-f98551728b21" fill="url(#uuid-b0da9d56-527d-46a4-9cb7-8df4d45bfa2a)" d="M857.56 541.3h22.3v30.78h-22.3z"></path></g></g><g id="uuid-758abebe-ea4d-4738-bba6-c6cac1db880a" clip-path="url(#uuid-08b488f7-daf4-41ca-ac32-5f586ea43e08)"><g id="uuid-a29bbb36-698e-4087-a2ef-215021ba3f7b"><path id="uuid-39d25917-bbcd-4747-8526-d59e8fd8d7b7" d="M879.86 566.51s-7.39 5.19-15.75 2.44c0 0-24.41 17.98-21.37 25.53 0 0-.51 2.65 11.19-1.21s29.93-9.6 30.35-10.01 3.09.18-4.42-16.75" class="uuid-2b3d3713-d439-42d8-9041-cbccacf9abed"></path></g></g><g id="uuid-e9fed706-5ced-4c64-b8ba-4479dfddb9fd" clip-path="url(#uuid-bf42a091-cdae-42f0-aea0-4f88ef9418a4)"><g id="uuid-eaa31958-ab00-4339-b7be-084b43e44e4c"><path id="uuid-ace0aa0c-2dbf-496f-a9a4-abdacd64d99b" fill="url(#uuid-3a33486e-fcac-4fa2-9a56-947936446286)" d="M747.59 552.96h17.12v29.8h-17.12z"></path></g></g><g id="uuid-bc944403-686e-4a98-a0e0-0af31371609b" clip-path="url(#uuid-33c8d02d-f7e4-4bde-a8e5-3f61b5e7491e)"><g id="uuid-a36e8c54-adaf-46fb-8013-366acc3f1df8"><path id="uuid-bb71f1cf-55c4-4633-bf37-0397f1b4f24c" d="M763.59 579.84s-8.61 2.74-15.75-2.4c0 0-28.68 9.84-28.04 17.95 0 0-1.28 2.38 11.04 2.2s31.43-.18 31.95-.45 2.89 1.1.8-17.3" class="uuid-2b3d3713-d439-42d8-9041-cbccacf9abed"></path><path id="uuid-a030f8ab-1f64-4bb7-a866-46fa899158dd" d="M852.7 282.04c2.26 12.82 3.37 25.81 3.33 38.82 0 22.18 1.11 113.35 7.21 136.81s16.64 86.68 16.64 86.68l-27.17 8.42s-36.05-92.71-41.59-116.01-12.2-100.01-12.2-100.01-24.94 119.97-26.61 132.72-2.78 88.58-2.78 88.58h-27.17s-8.32-110.76-4.99-135.72 20.46-140.3 20.46-140.3h94.89Z" class="uuid-46b8d054-8941-4600-b48b-034d43b90d0c"></path></g></g><g id="uuid-650af7cd-a5b0-4f22-957b-51c9069602b2" clip-path="url(#uuid-ab9a7e67-2f0f-4ab1-a701-a19676200400)"><g id="uuid-7c50e3a4-45f2-41c7-bab5-75b7f09a33c2"><path id="uuid-3c041ee2-2ae8-4052-8254-d6f0ec0e53dc" fill="url(#uuid-667595b6-da92-4321-ad9a-6baaef1f23f9)" d="M0 335.33h199.61v224.21H0z"></path></g></g><g id="uuid-6d3b0343-d9ed-4810-a2c2-960df13a072f" clip-path="url(#uuid-c7072fb0-489e-49bc-ac00-378f9931f6b0)"><g id="uuid-59f7d580-2148-436f-81fa-206da9f5a69e"><path id="uuid-58e5d826-1ffd-40a5-a563-dbdef5f0d40f" d="M183.8 558.72 4.71 347.52c.16-.88.25-1.33.25-1.33.33-.16.68-.28 1.01-.41l179.74 211.95.53.64-.74.76-.73.76-.97-1.16Z" class="uuid-84108cde-4e52-4647-947b-33f4eaff4017"></path><path id="uuid-ea524a9f-a703-4ec7-a7de-795f6a572c70" d="M21.77 449.82c-.32-.61-.63-1.23-.94-1.85l58.42-15.74.25 2.03-57.73 15.56" class="uuid-84108cde-4e52-4647-947b-33f4eaff4017"></path><path id="uuid-bf8d84ba-8875-4ded-a35f-cd018b99fdc3" d="M128.46 366.95c.56.53 1.11 1.06 1.66 1.61l-16.04 105.8-1.69-1.47 16.07-105.94Z" class="uuid-84108cde-4e52-4647-947b-33f4eaff4017"></path><path id="uuid-c1352954-49c7-4f30-846e-b97f22a31ae3" d="M51.61 335.06c.64-.04 1.28-.08 1.91-.08l-6.95 59.17-1.9-.03 6.95-59.07Z" class="uuid-84108cde-4e52-4647-947b-33f4eaff4017"></path></g></g><g id="uuid-5d0c12ec-2dcb-4565-8393-53d529669362" clip-path="url(#uuid-eb3bcf4e-eeaa-4ffd-a597-6482542f3728)"><g id="uuid-52a4c905-a5f4-46c5-bcff-ce8e15234e05"><path id="uuid-798ff60a-a577-43e1-8c01-d3e3b629f66d" fill="url(#uuid-e862f330-87e3-4810-bcc1-4f6dabdf754e)" d="M49.49 451.13H198.2V581.6H49.49z" transform="rotate(-16.44 123.87 516.426)"></path></g></g><g id="uuid-b2060ab1-be9f-478d-9cae-f87c5ae077cf" clip-path="url(#uuid-6be4a3a8-e785-4a98-b604-efcc6fe100bb)"><g id="uuid-fc39d768-0355-4ba5-aaa0-1b94b7a70375"><path id="uuid-7cfe8f95-f88f-4020-8427-b47b2c6fb957" d="M185.63 561.42 60.76 484.35l-.09-.71c.15-.13.3-.26.45-.37l125.32 77.34.37.23-.25.51-.25.5-.68-.43Z" class="uuid-84108cde-4e52-4647-947b-33f4eaff4017"></path><path id="uuid-e1417122-7daf-4824-932a-48cf16dee98f" d="m86.12 533.09-.78-.78 26.86-17.51.46.99-26.54 17.32" class="uuid-84108cde-4e52-4647-947b-33f4eaff4017"></path><path id="uuid-af520f40-55dc-412f-96ad-890acd3daab3" d="M126.3 473.85c.37.17.73.35 1.1.54l9.27 55.94-1.1-.47-9.27-56.01Z" class="uuid-84108cde-4e52-4647-947b-33f4eaff4017"></path><path id="uuid-9864bbe9-6f11-4e39-a528-52a864969b82" d="M82.37 470.38c.32-.12.64-.24.95-.35l6.19 30.96-.97.3-6.17-30.91Z" class="uuid-84108cde-4e52-4647-947b-33f4eaff4017"></path></g></g><g id="uuid-6d1b90d0-8ed4-4926-9c59-261af2e4f6ec" clip-path="url(#uuid-fd8041b8-7e5e-4c84-a2ac-9ded097c0b42)"><g id="uuid-1fb9ed85-6abd-4301-b9da-339a59b387c6"><path id="uuid-5b774eae-2150-4a86-9b69-f9109f172e96" fill="url(#uuid-75aa3806-3614-4788-b765-0c44e7423011)" d="M1174.49 213.24h300.76v337.84h-300.76z"></path></g></g><g id="uuid-00f7dc9a-1ea6-4540-9090-eb0ac44570dc" clip-path="url(#uuid-b3e7303c-8e32-42cb-9aac-ce6b89b30e8f)"><g id="uuid-de71cb50-ccd9-48de-8336-56c8cdb50b6f"><path id="uuid-0f478cd2-08f4-4fdf-bd0f-3ff7f34855c2" d="m1196.83 551.59-1.11-1.14-1.11-1.14.8-.96 270.82-319.36c.5.19 1.02.38 1.52.61 0 0 .14.69.38 2.01l-269.84 318.22-1.47 1.75Z" class="uuid-84108cde-4e52-4647-947b-33f4eaff4017"></path><path id="uuid-b10eb2ec-0af0-4234-a78a-38eb0c556f4a" d="m1442.43 385.71-86.99-23.44.38-3.05 88.03 23.72c-.46.93-.93 1.87-1.41 2.79" class="uuid-84108cde-4e52-4647-947b-33f4eaff4017"></path><path id="uuid-a5bb3bfe-afde-493a-a856-7f571f699f11" d="m1305.89 420.49-2.55 2.22-24.16-159.42c.83-.82 1.66-1.63 2.5-2.42l24.21 159.62Z" class="uuid-84108cde-4e52-4647-947b-33f4eaff4017"></path><path id="uuid-8dbacc42-ab7f-49e2-97e8-00e168d5cd9c" d="m1407.93 301.84-2.86.04-10.48-89.17c.94 0 1.91.05 2.88.11l10.46 89.01Z" class="uuid-84108cde-4e52-4647-947b-33f4eaff4017"></path></g></g><g id="uuid-de26bb65-bba9-4edf-bc40-2c6ace797acb" clip-path="url(#uuid-4a44b96c-1311-476c-9af2-d511307f066f)"><g id="uuid-dc9cf5c9-4ddc-47ac-94f7-9541a4b3500c"><path id="uuid-fe77af82-df24-40df-b42d-6b0cb0d1ed41" fill="url(#uuid-709cad06-fc88-4043-a08d-6408f526b1e6)" d="M1190.34 374.04h196.62v224.09h-196.62z" transform="rotate(-73.59 1288.57 486.11)"></path></g></g><g id="uuid-0cd29b4e-c8ee-4eb5-b1e3-a0a7c553aa9b" clip-path="url(#uuid-f84a55c5-a56d-4bef-b586-eca8231c479b)"><g id="uuid-60d52cea-23f2-4fb4-a0cb-b9427acfca80"><path id="uuid-f225110b-1d59-43b8-8abe-1d00dba9731d" d="m1194.51 554.54-.37-.75-.37-.76.56-.35 188.83-116.53c.22.18.45.37.67.56l-.14 1.08-188.15 116.12-1.03.64Z" class="uuid-84108cde-4e52-4647-947b-33f4eaff4017"></path><path id="uuid-44eefd32-f3fd-4fed-bd8d-b6e94792d329" d="m1345.47 511.22-39.99-26.09.69-1.49 40.47 26.39c-.39.39-.78.79-1.17 1.17" class="uuid-84108cde-4e52-4647-947b-33f4eaff4017"></path><path id="uuid-7b6a018a-499f-454d-8776-1f7cf3bfb160" d="m1270.96 506.36-1.65.71 13.97-84.3c.55-.28 1.1-.55 1.66-.81l-13.97 84.41Z" class="uuid-84108cde-4e52-4647-947b-33f4eaff4017"></path><path id="uuid-df24dea8-44e6-4926-ba8e-bf6bc0f81830" d="m1341.83 463.3-1.46-.45 9.32-46.65c.47.17.95.34 1.43.53l-9.3 46.57Z" class="uuid-84108cde-4e52-4647-947b-33f4eaff4017"></path></g></g><g id="uuid-5511f5db-5e17-4a8f-b542-b2c6298e9a9c" clip-path="url(#uuid-a54bf928-3b1f-41a9-b21e-abb6eda5d1c5)"><g id="uuid-4c763581-ab3f-4b74-bb29-11e50ca56169"><path id="uuid-8855ab58-13eb-4d1d-9181-3b54cc447f2a" fill="url(#uuid-e4e37328-fb38-4f6f-ba85-3e56fffff3cb)" d="M694.09 192.01h46.58v80.6h-46.58z"></path></g></g><g id="uuid-b9460c7d-a085-4d7a-9f73-1e5c8852ae16" clip-path="url(#uuid-f23066a9-5bb0-4295-9a03-5863c389968b)"><g id="uuid-c209260a-d252-4ec4-9a9a-a88a38f074bc"><path id="uuid-fda844c3-b56c-4c28-956b-f40404b54065" fill="#f9d358" d="M783.19 119.55s33.28-4.44 52.5 8.13 25.14 36.97 25.14 36.97l-19.23 11.09s17.75 70.24 14.79 110.91c0 0-30.32 22.18-110.17 4.44 0 0-2.22-85.99 0-91.8l-5.92 15.11-33.76-14.39s12.32-48.67 30.81-62.71 45.84-17.75 45.84-17.75"></path><path id="uuid-7af51024-4420-4848-8bf5-ee2144e24b2f" d="M580.67 320.84s-6.77-9.73-10-12.7-4.15-8.25-6.4-7.07 1.19 8.89 1.19 8.89-8.6-2.4-11.13-3.53-7.57-2.02-8.55-.23 11.56 6.4 11.56 6.4-10.94-2.85-12.19-1.39 12.13 7.13 12.13 7.13-11.52-3.61-12.67-3.1-.55 2 3.22 4.27c2.6 1.49 5.35 2.71 8.2 3.61 0 0-8.28-1.93-9.36-1.81s-2.47 1.06 3.47 3.83 19.75 6.66 27.44 5.8l3.09-10.08Z" class="uuid-197a7934-3fad-4eb5-9547-dc4c48da6714"></path><path id="uuid-fdf9db5b-2969-4637-9a6b-2dde4c94b0d0" d="M590.81 380.86h66.36v6.89h-66.36z" class="uuid-bac8badc-97fe-4f5b-96d0-2b14f47f596d"></path><path id="uuid-87302468-c446-41b0-9fd7-bf37747a4199" d="M587.08 376.67h67.53v4.26h-67.53z" class="uuid-46b8d054-8941-4600-b48b-034d43b90d0c"></path><path id="uuid-547d44aa-90d6-4df6-8c94-0b2fefefebda" d="M637.53 290.36h123.48v167.23H637.53z" class="uuid-f4b67e1c-a2a7-4ba7-8816-c31b62c4afab"></path><path id="uuid-fd6d70b9-3777-4e2f-a0af-153cb07ea545" d="M602.77 431.89h158.24v24.1H602.77z" class="uuid-f4b67e1c-a2a7-4ba7-8816-c31b62c4afab"></path><path id="uuid-3b8e645a-bd12-4b5a-b0f1-1821e47fadb8" d="M761.01 460.67c-1.7 0-3.08-1.38-3.08-3.08V267.63c0-1.7 1.38-3.08 3.08-3.08h31.8c1.7 0 3.08 1.39 3.07 3.09 0 1.7-1.38 3.07-3.07 3.07H764.1v186.88c0 1.7-1.38 3.08-3.08 3.08" class="uuid-bac8badc-97fe-4f5b-96d0-2b14f47f596d"></path><path id="uuid-49bdcb04-e861-4e13-95db-470d41cdf5ef" d="M536.51 573.94c-1.7 0-3.07-1.39-3.07-3.1 0-1.67 1.34-3.02 3-3.07l119.62-2.41 40.33-103.45c.6-1.59 2.38-2.39 3.97-1.79 1.59.6 2.39 2.38 1.79 3.97 0 .02-.01.03-.02.05l-41.08 105.37a3.07 3.07 0 0 1-2.81 1.96l-121.68 2.45h-.06" class="uuid-bac8badc-97fe-4f5b-96d0-2b14f47f596d"></path><path id="uuid-370a6c83-dc3c-45fe-9105-3e93c47962e2" d="M607.85 524.39s.34 23.45.16 23.79 1.71 3.27 1.71 3.27l7.4 1.33 6.75-3.1s-.6-21.8.11-25.24-16.13-.04-16.13-.04" class="uuid-197a7934-3fad-4eb5-9547-dc4c48da6714"></path><path id="uuid-16737fa5-84e6-4d8d-8217-0280fd6108dd" d="M623.86 549.67s-8.53 2.98-15.81-1.95c0 0-28.39 10.64-27.52 18.73 0 0-1.21 2.41 11.09 1.89s31.42-1.07 31.93-1.35 2.92 1.02.31-17.32" class="uuid-f0386624-5691-441d-891b-6f989d56e4b5"></path><path id="uuid-4e94ea65-6f88-489a-8fab-bd0c17855a21" d="M563.87 524.39s.34 23.45.15 23.79 1.71 3.27 1.71 3.27l7.4 1.33 6.75-3.1s-.6-21.8.11-25.24-16.13-.04-16.13-.04" class="uuid-197a7934-3fad-4eb5-9547-dc4c48da6714"></path><path id="uuid-0a60975d-cd23-437d-83b5-4809ff8a21ef" d="M579.88 549.67s-8.53 2.98-15.81-1.95c0 0-28.39 10.64-27.52 18.73 0 0-1.21 2.41 11.09 1.89s31.42-1.07 31.93-1.35 2.92 1.02.31-17.32" class="uuid-f0386624-5691-441d-891b-6f989d56e4b5"></path><path id="uuid-20cc1520-d411-411f-9882-f558d5ce22b2" d="M765.13 601.1c-46.91 0-85.08-39.51-85.08-88.08s38.17-88.08 85.08-88.08 85.07 39.51 85.07 88.08-38.17 88.08-85.07 88.08m0-166.92c-41.81 0-75.83 35.37-75.83 78.84s34.02 78.84 75.83 78.84 75.83-35.37 75.83-78.84-34.02-78.84-75.83-78.84" class="uuid-f0386624-5691-441d-891b-6f989d56e4b5"></path><path id="uuid-3bb06573-c178-4475-b148-30c9ac413039" d="M765.13 582.31c-36.89 0-66.91-31.08-66.91-69.29s30.02-69.29 66.91-69.29 66.91 31.08 66.91 69.29-30.01 69.29-66.91 69.29m0-132.43c-33.49 0-60.75 28.32-60.75 63.13s27.25 63.13 60.75 63.13 60.74-28.32 60.74-63.13-27.25-63.13-60.74-63.13" class="uuid-bac8badc-97fe-4f5b-96d0-2b14f47f596d"></path><path id="uuid-e91212d7-b4cc-4445-ae56-20d4a8460f82" d="M776.38 513.02c0-5.4-5.04-9.78-11.25-9.78s-11.25 4.38-11.25 9.78 5.04 9.78 11.25 9.78 11.25-4.38 11.25-9.78" class="uuid-f0386624-5691-441d-891b-6f989d56e4b5"></path><path id="uuid-f6227dcd-0625-40cf-907d-9355e60335d3" d="M684.74 511.99h160.84v2.05H684.74z" class="uuid-f0386624-5691-441d-891b-6f989d56e4b5"></path><path id="uuid-c767ed13-d605-4396-9958-662252b84847" d="M764.1 429.56h2.05v166.47h-2.05z" class="uuid-f0386624-5691-441d-891b-6f989d56e4b5"></path><path id="uuid-e420c8a9-d3e6-41d4-8807-f40d19aae84b" d="M763.42 431.9h2.05v163.72h-2.05z" class="uuid-f0386624-5691-441d-891b-6f989d56e4b5" transform="rotate(-45.81 764.454 513.77)"></path><path id="uuid-dc3f8f72-8e81-42dc-a1c5-bfe1596ac33d" d="M683.97 512.78h163.72v2.05H683.97z" class="uuid-f0386624-5691-441d-891b-6f989d56e4b5" transform="rotate(-44.19 765.823 513.806)"></path><path id="uuid-c56228fe-95dd-446a-84e2-a3e4c408420f" d="M727.75 391.82s6.48 27.76-18.57 41.29-51.94 14.12-59.01 29.69-20.75 71.69-20.75 71.69h-28.77l6.19-87.68-22.7 87.68h-25s-4.99-94.16 22.37-114.91 56.01-30.92 62.31-37.42c5.58-5.76 83.93 9.67 83.93 9.67" class="uuid-f0386624-5691-441d-891b-6f989d56e4b5"></path><path id="uuid-ea08d0d2-a7ea-495e-97a6-8af95cf9f887" d="M606.84 447.32h-.09a.515.515 0 0 1-.42-.59c.05-.3 1.4-7.45 8.47-16.16 6.5-8 19.27-18.84 43.26-25 .27-.08.56.08.64.35s-.08.56-.35.64h-.03c-23.72 6.09-36.32 16.77-42.72 24.65-6.9 8.51-8.24 15.63-8.25 15.7-.04.24-.25.42-.5.42" class="uuid-46b8d054-8941-4600-b48b-034d43b90d0c"></path><path id="uuid-445a2d97-83c2-4c7a-9ee7-402161f8221f" d="M630.58 390.33s49.16 16.86 97.93 11.69l8.84-31.06s30.79 3.7 34.48-25.14-15.26-70.61-40.4-78.19-62.11-4.62-79.86 7.21-24.81 36.27-33.69 40.71-39.32.73-39.32.73l-6.48 20.49s61.55 35.07 64.33 15.16l-5.84 38.41Z" class="uuid-84108cde-4e52-4647-947b-33f4eaff4017"></path><path id="uuid-e497e126-c55f-440a-9a3e-6cb088fdaad9" d="M694.65 373.97h66.36v6.89h-66.36z" class="uuid-bac8badc-97fe-4f5b-96d0-2b14f47f596d"></path><path id="uuid-82ed5918-374c-49c8-839b-2d0a37762808" d="M672.14 221.68s-1.73-3.21-3.43-2.12c-4.32 2.77-.66 7.18 1.96 8.32l1.47-6.2Z" class="uuid-197a7934-3fad-4eb5-9547-dc4c48da6714"></path><path id="uuid-0eb73da6-7d64-4330-9a5f-6299cce98ddf" d="M672.26 210.43h.02c.02-.31.03-.63.06-.95 1.24-13.63 13.29-23.68 26.93-22.44 13.63 1.24 23.68 13.29 22.44 26.93-.32 3.47-1.36 6.83-3.06 9.87-2.81 5.57-5.28 10.32-7.78 14.23-4.11 6.49-6 14.15-5.38 21.81l.46 6.03c-15.9 6.69-22.14-1.45-22.14-1.45l.71-10.91c.09-1.42-.93-2.68-2.33-2.89h-.03c-18.7-2.94-10.68-31.74-9.91-40.21" class="uuid-197a7934-3fad-4eb5-9547-dc4c48da6714"></path><path id="uuid-96b69ab5-569a-4250-873c-6ecdf11feecb" d="m723.77 215.88-8.22 16.09-4.41-1.31-.73-21.79 13.35 7Z" class="uuid-46b8d054-8941-4600-b48b-034d43b90d0c"></path><path id="uuid-ed1119e6-21d6-489a-af3e-78757c2caadf" d="M710.5 230.06c.48-.76 1.22-1.31 2.08-1.57 1.77-.53 4.84-1.01 6.72 1.25 2.76 3.31-4.07 10.79-9.74 6.24 0 0-1.57-1.88.94-5.92" class="uuid-197a7934-3fad-4eb5-9547-dc4c48da6714"></path><path id="uuid-94b153c8-17fa-47b0-a5a3-88e1e6757549" d="M677.11 201.21s-3.77 2.17-6.01 17.07c0 0 .31-16.81 2.34-18.48s3.67 1.41 3.67 1.41" class="uuid-46b8d054-8941-4600-b48b-034d43b90d0c"></path><path id="uuid-c7e42451-0526-4075-9721-e464694ca5c6" d="M715.34 186.13c-.71-.73-2.02-1.31-2.61-.49-.21.36-.28.77-.21 1.18.09 1.19.37 2.35.83 3.45-4.16-4.88-11.11-6.4-17.52-6.3s-12.79 1.5-19.19 1.18c-2.54-.12-5.59-.3-7.08 1.76-.97 1.55-.87 3.53.24 4.97a7.68 7.68 0 0 0 4.46 2.7 3.458 3.458 0 0 0-4.34 4.91c1.09 1.9 3.61 2.33 5.8 2.5 6.97.57 13.96.77 20.95.59-1.02.82-2.03 1.64-3.05 2.46-.37.25-.67.59-.87.99-.18.59-.07 1.24.3 1.74a5.168 5.168 0 0 0 4.08 2.08c1.58 0 3.16-.16 4.71-.51 2.28-.37 4.59-.53 6.91-.48.48-.02.95.06 1.4.24.55.34 1.03.79 1.39 1.33 2.46 2.96 6.35 4.21 10.04 5.33 1.14.35 2.65.57 3.29-.44.21-.41.32-.88.29-1.34.17-5.57-1.16-11.09-3.86-15.96.38.89 1.4 1.3 2.29.92.38-.16.69-.45.87-.82.97-1.84-1.34-3.36-2.64-4.12-1.19-.69-2.32-.84-3.21-2-1.39-1.81-1.53-4.12-3.25-5.88" class="uuid-46b8d054-8941-4600-b48b-034d43b90d0c"></path><path id="uuid-5651b9d0-4429-4c59-b4b9-d21256b8b5ff" d="M737.35 371.47h-.02l-42.7-1.48c-.28 0-.5-.23-.5-.51v-15.16c0-.22.14-.42.35-.49 15.14-5.1 38.14-13.9 39.43-17.26 1.42-3.69-1.81-23.8-3.72-33.92a.513.513 0 1 1 1.01-.19c.23 1.21 5.55 29.59 3.67 34.48-1.83 4.77-34.46 15.97-39.71 17.75v14.29l42.21 1.46c.28.02.5.26.48.54-.02.27-.23.48-.5.48" class="uuid-46b8d054-8941-4600-b48b-034d43b90d0c"></path><path id="uuid-c561a023-493f-4f31-a053-974b53221c94" d="m684.82 360.69-1.37.48c-4.23 1.47-16.88 5.93-18.2 6.92-1.59 1.19 7.29 10.66 7.29 10.66s15.63-3.98 19.54-8.83-7.26-9.22-7.26-9.22" class="uuid-197a7934-3fad-4eb5-9547-dc4c48da6714"></path><path id="uuid-30f0447b-0676-4ec9-b735-cb1f8380b3fc" d="M674.59 378.18s-7.35 6.57-8.38 5.96 5.09-7.28 5.09-7.28l3.29 1.32Z" class="uuid-197a7934-3fad-4eb5-9547-dc4c48da6714"></path><path id="uuid-ca060220-0549-495b-9a8f-68f581992396" d="M671.39 376.16s-11.05 9.2-12.56 7.75 11.11-10.39 11.11-10.39l1.45 2.64Z" class="uuid-197a7934-3fad-4eb5-9547-dc4c48da6714"></path><path id="uuid-a8acd96a-e2b2-44a1-b644-3022e4cdab5c" d="M668.73 373.62s-11.81 8.2-13.19 6.62 11.98-9.38 11.98-9.38l1.21 2.76Z" class="uuid-197a7934-3fad-4eb5-9547-dc4c48da6714"></path><path id="uuid-a9f64e24-d04d-4213-acdf-1c273cc774a7" d="M667.03 370.53s-10.98 7.84-12.32 6.24 11.11-9 11.11-9l1.21 2.76Z" class="uuid-197a7934-3fad-4eb5-9547-dc4c48da6714"></path><path id="uuid-4a8564d6-df67-47a3-b688-d6fafd1f1b8a" d="m682.01 361.98 12.08-5.81v12.85l-4.88 2.59-7.19-9.63Z" class="uuid-197a7934-3fad-4eb5-9547-dc4c48da6714"></path><path id="uuid-810e01fc-7574-497f-b6ac-045d4f700614" d="M690.27 369.72h67.53v4.26h-67.53z" class="uuid-46b8d054-8941-4600-b48b-034d43b90d0c"></path></g></g><g id="uuid-764e71e0-7924-450a-b353-33292755d496" clip-path="url(#uuid-30ca3c09-9360-4772-b6fd-6a15dd22b357)"><g id="uuid-cc464dd6-43e7-42d6-b5bb-1e0b29346362"><path id="uuid-126d1079-f444-4add-9fd0-cd29cf9dafd3" fill="url(#uuid-33fc3ac4-4f88-49be-8d51-b734c7900d2f)" d="M799.97 167.21h73.06v101.33h-73.06z"></path></g></g><g id="uuid-b4469074-c08a-4302-9694-a1b57bdcd8dc" clip-path="url(#uuid-2a3521ac-47f3-497e-a991-2ded78d67c45)"><g id="uuid-2ff28561-37f2-4c6e-b7dc-b80a944ae4ab"><path id="uuid-ad2e6c60-b1c4-4073-adaa-5afb70594568" fill="url(#uuid-088d6a5e-ab23-49af-b431-ac6a5ef2bc17)" d="M770.85 257.01h43.07v29.42h-43.07z"></path></g></g><g id="uuid-1b830987-ecbd-42d5-8e20-92b03f345df8" clip-path="url(#uuid-ae55afc0-ef51-4466-8a63-4582c100ca3f)"><g id="uuid-460ac5bd-92eb-46aa-a5b1-6aefcaad1081"><path id="uuid-cb42b807-1708-41a9-8a78-ea17967e1bf1" fill="url(#uuid-e09466b6-80a1-4b25-b8e0-bcc0764e6ff9)" d="M748.33 76.73h7.9v8.65h-7.9z"></path></g></g><g id="uuid-c58e9fe3-a579-4471-baf7-7f4c1995d092" clip-path="url(#uuid-a2e2042a-dfa0-4b08-b450-6698cc187678)"><g id="uuid-124ad76e-9748-487e-93b7-308be05f3bfb"><path id="uuid-972451f2-d32e-439e-b5d6-a181190ad613" fill="url(#uuid-c17cb32f-882f-4613-b967-1560d445fb08)" d="M750.81 39.44h55.85v88.39h-55.85z"></path></g></g><g id="uuid-b504dcc2-0548-46e3-a6c3-0d3845e0e784" clip-path="url(#uuid-5f98e224-44ec-4eac-a682-2af2b9d303e5)"><g id="uuid-8e596b60-e322-4938-b8e8-2e0180033ffa"><path id="uuid-87074fd7-5fa9-45ab-8728-9d8deeb39fd9" d="m808.63 65.86-6.3 17.68-4.71-.75-3.69-22.34 14.7 5.41Z" class="uuid-f0386624-5691-441d-891b-6f989d56e4b5"></path></g></g><g id="uuid-e8c5f185-4891-4e4a-8a82-7088e500f263" clip-path="url(#uuid-e9b513bb-5d0c-4b26-870e-8ac50ed093f0)"><g id="uuid-0c7dc400-e46c-4882-a011-9add542fbf37"><path id="uuid-b2f1f606-220a-4e70-87a3-3e861ce44ef1" fill="url(#uuid-bca43edd-f81d-4961-ac4f-03904bb10ce3)" d="M794.83 79.48h14.34v12.93h-14.34z"></path></g></g><g id="uuid-587ec7bd-89e2-4113-a477-879cebda7046" clip-path="url(#uuid-aad80fb8-54e0-497e-81a7-66af8a4a8c0e)"><g id="uuid-17fdcec1-f185-463b-af91-d67034641ea3"><path id="uuid-cb88b9c0-3e52-40c7-bdb5-18ecc4c78c2b" d="M758.58 57.04s-3.59 2.74-3.89 18.39c0 0-1.94-17.36-.08-19.35s3.97.96 3.97.96" class="uuid-f0386624-5691-441d-891b-6f989d56e4b5"></path><path id="uuid-c5fb0b76-7eaa-42c9-b674-214a244c822a" d="M797.82 34.82c-5.82-5.02-15.09-3.31-21.73-7.18 2.43 3.67 5.52 6.85 9.11 9.39l-27.87-4.27c3.13 2.45 6.49 4.58 10.04 6.36-6.9 1.51-13.92 2.39-20.98 2.61-.55 1.16.1 2.51.73 3.63 3.46 6.14 7.62 12.83 14.44 14.6 2.14.49 4.34.63 6.52.4 8.63-.66 17.82-4 25.54-.08 3.58 1.82 8.67 9.06 13.2 7.32 4.03-1.54 9.06-17.22-8.99-32.79" class="uuid-f0386624-5691-441d-891b-6f989d56e4b5"></path></g></g><g id="uuid-d389ad7a-e12e-414e-a9c9-971c9fa15dc0" clip-path="url(#uuid-246d2597-8541-4ec5-9881-b4baff98e2e3)"><g id="uuid-282029ba-58d9-46c6-a327-bc101f7a69a3"><path id="uuid-a193407e-1b13-4bf8-b488-fdfea8a8d4b8" fill="url(#uuid-87a68ad2-63fc-4488-88ce-4bd12b3a2603)" d="M414.14 544.8h19.53v35.16h-19.53z"></path></g></g><g id="uuid-71dfcaea-24a0-4422-93f8-6ada65a82414" clip-path="url(#uuid-1e78dcf8-0245-4579-a4af-c4e8f67edc7d)"><g id="uuid-7c82d6ad-d63e-4b8e-814e-c95d8e869412"><path id="uuid-e4f1657e-5f6c-483c-8802-d2a9d0166a1a" d="M414.14 576.12s9.92 3.75 18.61-1.83c0 0 33.01 13.31 31.76 22.78 0 0 1.35 2.86-13.07 1.9s-36.84-2.16-37.43-2.51-3.46 1.11.13-20.33" class="uuid-f0386624-5691-441d-891b-6f989d56e4b5"></path></g></g><g id="uuid-74f2cc46-814b-4373-bb8f-6592236fa7be" clip-path="url(#uuid-87de3b3d-7477-4788-94de-6b4a17d6ea9a)"><g id="uuid-b2c5b490-85f2-4dcc-a349-422ca57d49bf"><path id="uuid-c1a975ae-be7e-4eb2-8ea9-563040c9c080" fill="url(#uuid-0aa4baa3-a8b5-4cf1-97e8-5e025066e089)" d="M338.53 537.4h23.43v35.42h-23.43z"></path></g></g><g id="uuid-7c1d702d-1e98-4a50-9915-bc89e0f786e4" clip-path="url(#uuid-9b78bce0-1407-4e57-97ff-9d9d22f099bf)"><g id="uuid-6b8da9c5-84b1-42de-97cb-2a933f52a53f"><path id="uuid-e15b9247-124a-4554-ab2e-42ea10cd62df" d="M338.53 567.92s9.3 5.1 18.69.79c0 0 30.82 17.8 28.25 27 0 0 .93 3.03-13.21.05s-36.17-7.3-36.71-7.73-3.58.61 2.98-20.11" class="uuid-f0386624-5691-441d-891b-6f989d56e4b5"></path><path id="uuid-4d1bb7ad-3489-4c67-94f5-2871b74cea66" d="M355.22 299.72s-.43 122.44-3.26 131.12-17.58 120.97-17.58 120.97l32.99 3.95s38.97-144.72 38.97-182.91c0 0 10.51 141.16.96 182.91h33.85s15.19-85.49 13.67-135.59-6.73-128.22-6.73-128.22l-92.88 7.77Z" class="uuid-f0386624-5691-441d-891b-6f989d56e4b5"></path></g></g><g id="uuid-8969b424-d487-40fd-b5fd-0765723ad582" clip-path="url(#uuid-98695043-b531-4c6e-9db7-019b2b0300ae)"><g id="uuid-367276f3-40f3-42d1-973c-e8f9beab38da"><path id="uuid-0af1573f-09ec-4f0e-adc1-e2a43210a03c" fill="url(#uuid-acc4cdd6-7572-401c-ac28-60d590691b38)" d="M489.55 295.68h28.74v35.93h-28.74z"></path></g></g><g id="uuid-4a2fe919-1cb9-4e85-bf81-d29bd8783db5" clip-path="url(#uuid-68aa90ef-9e4c-47ab-abcd-ba448d6fd4e4)"><g id="uuid-3c9541ec-b99d-4b9a-912e-9b44a524583b"><path id="uuid-d75a7bec-6021-4ff8-b879-e7c234335208" d="M269.85 71.36c-16.2 3.13-28.35 15.04-38.33 47.07s-40.36 22.05-43.4 42.45c-3.04 20.4 11.29 47.31 32.99 41.23s45.58-28.21 57.73-28.65 33.42-8.25 36.89-34.29-7.1-75.3-45.87-67.82" class="uuid-f0386624-5691-441d-891b-6f989d56e4b5"></path></g></g><g id="uuid-4deefb25-d633-460e-848f-f9b8d25ce680" clip-path="url(#uuid-60ba1bcc-82fe-48c9-96b9-3a6dae1777b0)"><g id="uuid-4a5a10cc-78cd-4959-8ec1-2ecff71cb9cf"><path id="uuid-afd4a7de-7536-403b-b87a-703736d1f7ec" fill="url(#uuid-58e05f14-5f88-468c-8326-786b6bd158c9)" d="M305.45 110.9h8.31v9.25h-8.31z"></path></g></g><g id="uuid-2a5d2df2-36b0-4e3d-8757-f2a1da00d26a" clip-path="url(#uuid-59f185c8-efdf-427a-b166-2917328d9d90)"><g id="uuid-8850553b-8eab-4da0-bf4b-755e3e4aa91b"><path id="uuid-f4381da7-29cd-4454-ab44-d7b5923ec7fe" fill="url(#uuid-2847a1ce-b06e-47c4-8a21-7b95805207bb)" d="M252.49 72.87h56.01v93.96h-56.01z"></path></g></g><g id="uuid-83725522-dfd3-4985-84c7-86ee999fd743" clip-path="url(#uuid-74f71824-a299-40fb-bdee-1859776d7e93)"><g id="uuid-70be9417-e868-4e58-acc9-7ebd0de0a687"><path id="uuid-613e027f-afcc-478b-8ab7-0f0592ec0eb9" d="M275.68 100.12c-4.77 5.56-9.83 11.01-13.41 17.38-.4.7-3.2 5.97-2.4 6.58-4.34-3.35-7.11-8.32-9.43-13.28-4.03-8.61-2.77-18.91 2.28-26.82 4.99-7.82 13.3-11.85 22.42-12.53 9.78-.73 20.43 2.62 26.35 10.82 5.56 7.7 5.75 17.38 6.34 26.47-.66-10.2-14.32-17.9-22.51-21.55.24.11-6.17 8.77-6.51 9.19-1.01 1.26-2.06 2.5-3.12 3.74" class="uuid-f0386624-5691-441d-891b-6f989d56e4b5"></path></g></g><g id="uuid-3e5607cb-33b9-4af7-9a46-dbcfe1917c5c" clip-path="url(#uuid-fa431b7d-2a8e-4d26-aec3-02f59e1dd0f0)"><g id="uuid-9480a7b8-d737-40e2-9741-5032bcf7fdd8"><path id="uuid-3de42f56-c4b4-415c-906d-0a1d02c0df52" fill="url(#uuid-80c30e31-5f42-4ea8-a973-d2c9403cdb49)" d="M250.33 115.45h15.08v13.53h-15.08z"></path></g></g><g id="uuid-d0831439-9e85-4465-af32-0f102c6a31b2" clip-path="url(#uuid-d55c0f11-4206-407c-9595-657ca4f3504e)"><g id="uuid-01a5473a-e62e-4566-832b-69edef16775b"><path id="uuid-aec826cd-b6be-45c2-b7a8-cbc5a720df38" fill="url(#uuid-5d7dd8c5-40d9-4386-917b-cf259bb89ae8)" d="M289.45 544.91h53.11v55.74h-53.11z"></path></g></g><g id="uuid-29c0e4f9-5f9c-4eaf-8074-02d09518bb7b"><path id="uuid-542c64f9-950a-495f-920a-7f723a85536f" d="M291.29 574.19c21.57 13.83 29.54 10.65 32.41 7.21 8.85 5.5 17.98 10.29 16.99 13.43-1.84 5.82-45.75-3.45-47.76-6-1.28-1.63-1.67-7.66-1.65-14.64" class="uuid-84098a47-2955-4058-a912-ced3b7f92ce9"></path></g><g clip-path="url(#uuid-abf82982-8bd6-4156-91f8-964a6a249020)"><g id="uuid-8a873798-b856-4ef3-a137-a291531cf477"><path id="uuid-274b3ddb-3eb0-4632-b40d-eebbbbbbfaac" fill="url(#uuid-590d5c71-04a1-4338-8d4e-7808a7c3de0a)" d="M181.4 526.01h50.04v63.81H181.4z"></path></g></g><g clip-path="url(#uuid-a96152c8-442b-48fb-97b5-c7355134240d)"><g id="uuid-89a0932f-eadb-47f9-be97-e8c524ab4e31"><path id="uuid-0e544982-75a5-4ed7-b89f-a07f60ecd1d3" d="M185.85 551.81c17.19 19 25.71 18.02 29.39 15.45 7.1 7.63 14.66 14.64 12.88 17.41-3.3 5.14-43.25-15.33-44.52-18.31-.81-1.91.39-7.83 2.25-14.56" class="uuid-84098a47-2955-4058-a912-ced3b7f92ce9"></path><path id="uuid-a40625fa-cd43-4f70-9505-234b3fb7f5b4" fill="#894978" d="M311.59 274.25s16.28 42.66 16.93 71.3 0 150.23-16.93 210.21h-26.04s-3.91-186.12-7.81-205-28.65 131.51-64.45 191.41l-29.95-7.81s29.3-93.98 34.51-145.95 13.02-115.31 18.88-121.72 74.87 7.57 74.87 7.57"></path><path id="uuid-46bd79fe-ffa7-408d-b8b8-5f10bf92240d" d="m262.12 161.27 3.26-11.46 29.3 3.04v11.07s20.83 3.26 28.65 9.11 19.53 47.46 19.53 47.46l-10.42 21.33-12.37-4.53s-1.3 23.61-8.46 36.97c0 0-43.62 11.38-63.15 0 0 0 10.42 42.66 9.77 48.51l-16.28 9.11s-35.81-44.02-35.81-81.58 16.93-77.27 32.55-82.48 23.44-6.55 23.44-6.55" class="uuid-84108cde-4e52-4647-947b-33f4eaff4017"></path><path id="uuid-86b022bc-8496-4402-ba3a-d71469d09cb6" d="M420.32 593.94c-.52 0-1.01-.27-1.28-.71L257.22 332.68a1.51 1.51 0 1 1 2.57-1.59L421.6 591.64c.44.71.22 1.64-.49 2.07-.24.15-.51.23-.79.23" class="uuid-46b8d054-8941-4600-b48b-034d43b90d0c"></path><path id="uuid-b5b04cf3-270d-47cb-9e59-fe4eb9aa7955" d="m254.52 334.7 18.88 28.86 6.31-4.07-18.3-29.78-6.89 4.99Z" class="uuid-46b8d054-8941-4600-b48b-034d43b90d0c"></path></g></g><g clip-path="url(#uuid-070ee0ee-84ca-4b82-a229-9a73f183c59c)"><g id="uuid-9b319d8d-62b1-4731-9d5f-23152906756f"><path id="uuid-a7d3f093-3f55-4b44-8463-d742539c1cea" fill="url(#uuid-d87179ce-2d4a-47d2-8a22-30379e04e420)" d="M246.54 323.55h30.01v36.7h-30.01z"></path></g></g><g clip-path="url(#uuid-8226ed6a-9165-42d1-a740-3829ccb5cfb2)"><g id="uuid-87ea172d-8280-4e3b-8695-0c5091c32d04"><path id="uuid-ef3f704d-9c2b-4db2-b8dc-e4420a6babc7" d="M387.11 136.78s-40.36 3.69-52.08 19.97-14.66 89.19-6.35 96.35 23.28 11.89 23.28 11.89l.65 40.84s69.66 16.93 102.21 0v-40.84s19.53 31.08 34.51 40.84l17.58-9.77s-24.84-63.75-27.99-75.59c-2.18-8.2-10.42-62.22-32.55-73.5s-59.24-10.2-59.24-10.2" class="uuid-bac8badc-97fe-4f5b-96d0-2b14f47f596d"></path><path id="uuid-f00e0d1c-468b-4e42-aaca-e67a69122c67" d="M370.14 268.31c-6.23.07-12.42-.88-18.34-2.82-.27-.09-.41-.38-.32-.65s.38-.41.65-.32c21.11 7.2 45.37-1.78 48.2-2.88l2.41-17.15c-2.68-1.53-22.97-12.93-42.72-17.86-.56-.16-1.03-.54-1.29-1.05-3.53-6.05 5.73-39.84 6.13-41.28.08-.27.36-.43.63-.36.27.08.43.36.36.63-3.32 12.02-8.89 35.94-6.23 40.49.13.27.37.48.66.57 21.24 5.31 43.07 18.02 43.29 18.15.18.11.28.31.25.52l-2.5 17.79c-.03.18-.14.33-.31.4a91.15 91.15 0 0 1-30.86 5.83" class="uuid-f0386624-5691-441d-891b-6f989d56e4b5"></path><path id="uuid-d961cd73-82a8-4d20-9bd9-e7b17d1c13ae" d="M454.83 265.51c-.27 0-.49-.2-.51-.47-.06-.7-6.3-70.6-6.73-80.59-.01-.28.2-.52.49-.54s.52.2.54.49c.43 9.97 6.66 79.84 6.73 80.55.02.28-.18.53-.47.56h-.05" class="uuid-f0386624-5691-441d-891b-6f989d56e4b5"></path></g></g><g clip-path="url(#uuid-15c5f260-90c0-4536-ac7c-16a5b3a461b6)"><g id="uuid-962a0e9a-6cd7-432f-8b53-9854b666d84d"><path id="uuid-af85c03f-0c2a-4bc0-8fb5-c6a3151a577e" fill="url(#uuid-b7344d0b-bfce-4c0b-a048-8a4b22861946)" d="M352.94 218.53h24.6v20.44h-24.6z"></path></g></g><g clip-path="url(#uuid-234767e8-0b52-4137-a0bd-9908c26065d8)"><g id="uuid-aeae45c6-016b-42de-a104-741eb1d0944f"><path id="uuid-9c8eaf67-6c6e-4877-9607-2cdc425e1a98" fill="url(#uuid-18debddb-bdd8-4c89-a162-155ed782c3ec)" d="M421.26 86.29h8.52v9.4h-8.52z"></path></g></g><g clip-path="url(#uuid-e6c4b5a7-a1ac-4937-aec3-847847bb3ee3)"><g id="uuid-642b341d-4602-45d0-8098-ec0f7b505520"><path id="uuid-de11ab5f-9d5f-4d5b-9d84-7c0b4efd5fd9" fill="url(#uuid-6c5d297f-0242-49ad-b70f-b8b8d00ebe20)" d="M366.65 50.69h64.14v93.8h-64.14z"></path></g></g><g clip-path="url(#uuid-f5aecf7a-3469-426d-9626-f4530b418c56)"><g id="uuid-41335a09-bedb-42c5-a232-298c5742e88c"><path id="uuid-9fdff8f8-7b87-45ab-ae31-8387ed7d9ffa" d="m364.51 82.5 9.03 17.69 4.84-1.44.8-23.95-14.68 7.7Z" class="uuid-f0386624-5691-441d-891b-6f989d56e4b5"></path></g></g><g clip-path="url(#uuid-8441d5fa-d812-4be2-a25f-c97b588a6414)"><g id="uuid-d61aaf29-ee40-4e46-bac7-1514582bb046"><path id="uuid-2ed943b1-20c2-4a27-90b7-53be22f26809" fill="url(#uuid-77aec4d3-213e-4d0a-bbfc-e46e65562e63)" d="M366.4 95.89h15.46v13.72H366.4z"></path></g></g><path d="M427.75 62.58a13.789 13.789 0 0 0-6.9-7.74 41.11 41.11 0 0 0-10.06-3.38c.11-.02.23-.04.34-.07 2.11-.51 3.4-2.64 2.89-4.74-.59-1.6-1.97-2.8-3.64-3.16a12.75 12.75 0 0 0-5-.03 63.98 63.98 0 0 0-18.65 5.59c.02-2.96 4.42-5.24 3.12-7.9-3.69-.46-7.26 1.5-10.14 3.84A35.682 35.682 0 0 0 370.69 56c.8-2.91.6-6.01-.56-8.8-.8.06-1.57.34-2.22.82-2.04 1.52-2.16 4.45-2.48 6.98s-1.57 5.53-4.11 5.69c-1.11.07-2.29-.45-3.31-.01-1.76.76-1.21 3.71.53 4.55s3.78.25 5.6-.36c-1.31 3.81-2.36 7.82-1.98 11.83.2 2.88 1.35 5.62 3.26 7.78 2.92 2.99 4.46.27 7.05-1.9 1.5-1.26 3.62-2.22 5.37-1.35 1.43.71 2.95 2.53 4.18 1.5.34-.34.56-.77.65-1.24.83-2.92 1.24-5.94 1.22-8.97 5.6 3.08 11.98 4.45 18.34 3.94a24.134 24.134 0 0 0-7.6-9.11l21.73 2.45c.67.12 1.34.17 2.01.17 1.31 2.7 2.88 7.33 4.05 15.18 0 0-.18-9.56-1.11-15.61a3.951 3.951 0 0 0 2.32-2.62c.36-1.92-1.24-3.65-2.9-4.67 2.27.72 4.69.83 7.02.34Z" class="uuid-f0386624-5691-441d-891b-6f989d56e4b5"></path><g clip-path="url(#uuid-5587780e-9b54-4eca-9f7b-c37a595d6b23)"><g id="uuid-3896399a-1662-440f-9eaf-d211f478cb87"><path id="uuid-a328f544-679b-4980-80db-94000def6856" fill="url(#uuid-f5af37d9-8c10-4792-8c8c-8f34f05218ee)" d="M401.64 242.9h36.76v26.99h-36.76z"></path></g></g><g clip-path="url(#uuid-412fb0c3-4970-4ee2-bd4c-d141dfd36908)"><g id="uuid-e3249b73-06b5-4712-820b-eaa7d7401ca4"><path id="uuid-f9457537-2f47-491e-8bbf-8b1bd741ca9b" d="M320.06 237.8c-.28 0-.51-.23-.51-.51v-6.97c0-.11.04-.22.11-.32.43-.56 10.42-13.84-2.43-27.99a.52.52 0 0 1 .03-.73.52.52 0 0 1 .73.03c12.72 13.99 3.7 27.6 2.59 29.16v6.8c0 .28-.23.51-.51.51" class="uuid-f0386624-5691-441d-891b-6f989d56e4b5"></path><path id="uuid-bf3256e5-1675-4dfa-93e6-36c0c422f046" d="M1101.33 484.02s6.11 78.37-2.22 86.71-20.56 16.12-21.68 21.12 36.13-.56 39.46-5.56 2.78-13.34 6.11-36.68 8.34-65.59 8.34-65.59h-30.01Z" class="uuid-197a7934-3fad-4eb5-9547-dc4c48da6714"></path><path id="uuid-baafb329-ea8c-4a4b-b5c2-fdca6f19b489" d="M1164.86 481.09s27.21 73.75 21.46 84.04-15.4 21.11-15.11 26.22 34.61-10.37 36.46-16.09-.96-13.59-4.1-36.96-17.01-107.6-17.01-107.6l-21.7 50.39Z" class="uuid-197a7934-3fad-4eb5-9547-dc4c48da6714"></path><path id="uuid-4b47e0e3-4971-4af3-aac2-4582d4bf33a9" d="M1171.21 591.35c-.2-3.48 4.21-9.6 8.85-16.4 4.25 9.92 21.49-6.36 27.31-12.28.96 6.04 1.26 9.61.29 12.59-1.85 5.72-36.17 21.21-36.46 16.09" class="uuid-2b3d3713-d439-42d8-9041-cbccacf9abed"></path><path id="uuid-0777850a-d1a1-45ac-9a16-3db5ae2d6f31" d="M1241.7 129.74c-.26-.65-8.34-15.54-6.98-16.33s9.46 9.14 9.46 9.14l-2.48 7.18Z" class="uuid-f0386624-5691-441d-891b-6f989d56e4b5"></path><path id="uuid-16441657-bcad-4537-8139-7b77aa165903" d="m1235.43 171.54 9.93-21.42-8.36-6.53-15.94 18.81 14.37 9.14Z" class="uuid-bac8badc-97fe-4f5b-96d0-2b14f47f596d"></path><path id="uuid-0ab5a3f9-69bf-4143-915a-7e12f89090b6" d="M1262.21 126.31s10.71-7.05 10.19-8.36-12.54 4.96-12.54 4.96 10.97-15.28 8.49-16.2-13.19 13.85-13.19 13.85 9.01-18.55 7.71-19.2-12.15 16.2-12.15 16.2 4.97-18.68 2.87-18.94-8.23 18.55-8.23 18.55l16.85 9.14Z" class="uuid-f0386624-5691-441d-891b-6f989d56e4b5"></path><path id="uuid-fff05bff-bb96-4d8e-9bdb-2d19501937cc" d="M1239.09 137.58c-.28-.89 4.04-23.47 7.31-23.47s16.6 6.29 16.6 11.52-13.72 17.96-13.72 17.96l-10.19-6.01Z" class="uuid-bac8badc-97fe-4f5b-96d0-2b14f47f596d"></path><path id="uuid-1d0d7e20-4085-4fb6-8cdb-14ff6abb63d0" d="M1250.45 143.59c0-4.34-3.52-7.86-7.87-7.86s-7.86 3.52-7.86 7.87c0 4.34 3.52 7.86 7.86 7.86s7.86-3.52 7.86-7.87" class="uuid-f0386624-5691-441d-891b-6f989d56e4b5"></path><path id="uuid-a57e6b5a-a918-488e-b908-fc23564de9f5" d="m1182.4 307.78 25.86 194.18s-6.27 3.83-12.93 4.04l-12.93-62.3v65.67s-85.26 13.57-97.97-3.37c-1.88-2.51 5.49-193.38 5.49-193.38l92.48-4.83Z" class="uuid-62a0e36b-e193-4f80-b515-dc7df07966b1"></path></g></g><g clip-path="url(#uuid-67d87a89-9b11-47f7-9a82-02a383073246)"><g id="uuid-eae4339f-789e-4fae-8969-648d465f8ebf"><path id="uuid-b27bbe8b-cbec-4041-bc8f-eb22fa51b342" fill="url(#uuid-8024cfe6-362b-44b0-8ca6-322d9811a514)" d="M918.36 304.24h28.97v38.33h-28.97z"></path></g></g><g clip-path="url(#uuid-d7d0007b-abf5-4c94-980e-394b99136e8f)"><g id="uuid-807ce7b8-c808-4e5f-9beb-59ecec021fd8"><path id="uuid-4639bbce-b9b8-4e59-852a-1e1ab5071b0d" fill="url(#uuid-20c99b84-d832-4785-9c9e-dbf5ed87b2a6)" d="M1028.78 370.22h40.36v202.86h-40.36z"></path></g></g><g id="uuid-8dfccd43-4001-49e0-b2c1-9604f1e646f0"><path id="uuid-fe931d93-c880-46f8-a931-73ebf22d7ef2" d="M981.66 430.7c-23.02 0-19.1 94.71-4.21 139.88l13.32 2.64s13.56-142.51-9.11-142.51" class="uuid-bac8badc-97fe-4f5b-96d0-2b14f47f596d"></path><path id="uuid-15e8c6d0-bd80-4ab2-a953-5a885ec3ef3a" d="M981.89 448.73c13.8.57 23.38-69.89 24.55-88.3s-36.84-1.57-36.84-1.57-6.62 89.09 12.28 89.87" class="uuid-bac8badc-97fe-4f5b-96d0-2b14f47f596d"></path><path id="uuid-b3bfe469-e9fd-4e40-8d4b-f094c372481b" d="M996.1 437.35c0-7.85-6.36-14.21-14.21-14.21s-14.21 6.36-14.21 14.21 6.36 14.21 14.21 14.21 14.21-6.36 14.21-14.21" class="uuid-f0386624-5691-441d-891b-6f989d56e4b5"></path><path id="uuid-f9750373-a0cf-4f6f-a2aa-aa2d3a1ca69d" d="m1061.7 290.64 12.54 112.9s-4.73 9.41-48.22 4.7c0 0-3.51-43.5-6.25-43.89s-11.76 42.72-11.76 42.72-19.59 9.41-49.38-2.35l5.49-114.08h97.58Z" class="uuid-2b3d3713-d439-42d8-9041-cbccacf9abed"></path><path id="uuid-41d039b0-a4e0-425b-be47-aa0922002ece" d="M1134.59 143.92s-59.37-26.15-102.28-24.54-84.65 22.77-89.94 35.71-31.15 37.32-23.51 149.15l24.69 1.2s7.64-73.99 17.04-93.07l1.76 91.87s80.53 10.73 102.87-5.14c0 0 1.18-135.2 4.11-138.14s65.25-17.05 65.25-17.05" class="uuid-f0386624-5691-441d-891b-6f989d56e4b5"></path><path id="uuid-803119b4-66cd-4351-8084-96257ad88672" d="M977.24 569.97s6.18 4.7 13.87-.58c0 0 32.16 12.26 31.3 20.84 0 0 1.3 2.55-11.74 2.08s-33.31-.9-33.85-1.2-2.19-1.7.43-21.15" class="uuid-46b8d054-8941-4600-b48b-034d43b90d0c"></path><path id="uuid-4693f519-f9ef-44b3-b4ca-5cf3b7adeccb" d="M1055.01 570.33s6.26 4.34 13.95-.94c0 0 32.16 12.26 31.3 20.84 0 0 1.3 2.55-11.74 2.08s-33.31-.9-33.85-1.2-2.28-1.34.34-20.79" class="uuid-46b8d054-8941-4600-b48b-034d43b90d0c"></path></g><g clip-path="url(#uuid-83cc7007-18c6-4b2b-b9fc-8d3319229df2)"><g id="uuid-b2899fab-5463-4f95-a79d-9d1cf94b1e7b"><path id="uuid-28e4ad7d-fbe6-43da-ba9c-624244fceede" fill="url(#uuid-4f58c347-5940-4963-962a-b3d5c9169877)" d="M1029.54 70.56h8.45v9.38h-8.45z"></path></g></g><g clip-path="url(#uuid-44327823-9625-418d-b5fa-0ff89d4f5295)"><g id="uuid-21d9717b-59ea-402c-85b9-d0c2682b1691"><path id="uuid-5a5f45b2-01fe-4634-93fc-0851d9709a7f" fill="url(#uuid-aa9727d1-1ac7-40db-b149-7d4ef290310f)" d="M973.48 38.38h68.22v91.99h-68.22z"></path></g></g><g clip-path="url(#uuid-59e5b746-a36a-4968-ac7f-16f97a8352b3)"><g id="uuid-33fb19a5-075f-4b0f-ad69-3fd8a2b684b1"><path id="uuid-fd0219c1-c9ca-4dc5-bdf1-3f864b687f53" d="m973.34 73.04 10.38 16.14 4.62-1.89-1.55-23.63-13.45 9.37Z" class="uuid-46b8d054-8941-4600-b48b-034d43b90d0c"></path></g></g><g clip-path="url(#uuid-8e094dd0-cac1-4bf6-ad07-99e43a13dc02)"><g id="uuid-2df78af0-40a9-44bb-8f2f-f99d02417774"><path id="uuid-3e1741c1-30bd-49cd-91ae-6c5298f1df06" fill="url(#uuid-82a37ecf-0f07-403a-b81e-fc5cf746a6cc)" d="M976.8 84.89h15.31v13.52H976.8z"></path></g></g><g id="uuid-dd317f65-6b78-471f-9f44-dbe4a5e5225f"><path id="uuid-4a88ae6b-be67-4a7d-9493-b98874f1f321" d="M1021.97 51.8s4.31 1.94 8.33 17.81c0 0-2.15-18.14-4.52-19.73s-3.81 1.92-3.81 1.92" class="uuid-46b8d054-8941-4600-b48b-034d43b90d0c"></path><path id="uuid-9a18906d-f35a-473e-a8e9-da1dd734236f" d="M971.88 75.49a3.118 3.118 0 0 1-.29-3.86 3.597 3.597 0 0 1-1.46-4.88c.08-.15.17-.3.28-.44.32-.39.73-.71 1.02-1.13.41-.7.61-1.51.58-2.32.07-1.7-.09-3.41-.45-5.07-.36-1-.4-2.09-.13-3.12.54-1.32 2.18-1.9 2.79-3.19.74-1.54-.15-3.69 1.06-4.89.74-.5 1.57-.87 2.44-1.09 2.58-1.17 3.21-4.94 5.84-5.97.86-.24 1.75-.4 2.65-.47 2.63-.47 4.73-2.39 7.03-3.75s5.48-2.09 7.49-.33c.33.37.72.68 1.15.93.66.21 1.38.17 2.02-.11 1.7-.69 3.46-1.25 5.25-1.66 1.83-.4 3.74.16 5.07 1.49.33.5.72.96 1.16 1.36.6.35 1.3.51 2 .44 2.77-.01 6.18-.34 7.68 2 1.13 1.77.62 4.5 2.33 5.72.62.45 1.43.58 2.08 1 1.68 1.08 1.62 3.78.29 5.28s-3.43 2.04-5.43 2.19c-2 0-4 .18-5.97.54-.54.08-1.02.4-1.28.88-.09.36-.1.74-.03 1.11 0 1.66-.91 3.19-2.35 4-1.43.78-3.01 1.25-4.63 1.39-2.83.39-5.69.57-8.54.52-2.21-.04-4.49-.19-6.54.61-1.41.65-2.72 1.48-3.9 2.48-2 1.5-4.09 2.85-6.19 4.21-.6.39-1.2.78-1.81 1.17-2.38 1.54-8.45 7.77-11.19 4.95" class="uuid-46b8d054-8941-4600-b48b-034d43b90d0c"></path><path id="uuid-bf9d8d9a-7c3f-4ab5-a340-db23658a8210" d="M1123.54 55.22c1.12-.1 2.23.17 3.17.78 1 .84 1.18 2.28 1.74 3.46 1.63 3.4 6.05 4.05 9.76 4.7s8.13 2.67 8.11 6.43c-.14.85-.12 1.71.04 2.56.22.51.57.96 1 1.3 2.57 2.27 6.02 3.23 8.98 4.94s5.69 4.85 5 8.21c-.32 1.58-1.36 2.96-1.56 4.56-.32 2.53 1.48 4.79 3.18 6.7 3.17 3.58 6.34 7.16 9.52 10.74 1.26 1.42 2.58 2.99 2.75 4.88.31 3.44-3.22 6.04-3.96 9.41-.91 4.14 2.51 7.9 3.47 12.02 1.1 5.79-2.54 11.43-8.28 12.8-1.29.25-2.69.29-3.75 1.07-1.72 1.25-1.76 3.72-2.15 5.8-.9 4.57-4.06 8.37-8.4 10.07-8.4 3.19-17.42-2.5-26.39-3.11-5.46-.37-10.87 1.18-16.34 1.49-6.42.35-12.82-1-18.54-3.92-.66-.29-1.25-.71-1.73-1.24-1.13-1.37-.73-3.39-.99-5.15-.75-5.23-6.94-7.5-12.12-8.52s-11.38-2.65-12.91-7.71c-.81-2.68 0-5.68-.97-8.3-1.17-3.18-4.59-4.96-6.31-7.88-2.39-4.05-.99-9.26 1.08-13.49s4.82-8.36 5.05-13.06c.15-3.11-.83-6.16-1.09-9.26s.44-6.63 3.03-8.36c3.15-2.1 7.43-.59 11.12-1.46 8.64-2.04 10.62-15.67 19.36-17.22 1.74-.18 3.49-.18 5.22 0 4.68.18 8.19-1.45 12.52-2.7 3.68-1.06 7.53-.61 11.39-.55" class="uuid-46b8d054-8941-4600-b48b-034d43b90d0c"></path><path id="uuid-8cd9144f-6e71-4439-bfb6-b397d99b35af" d="M1066.37 221.71s.16-56.7 2.97-60.75 31.54-17.64 36.77-18.42 44.94-.52 54.08 3.4 29.26 34.22 35.27 33.18 26.91-21.16 26.91-21.16l18.03 13.06s-25.08 45.98-40.23 44.15-32.66-9.67-32.66-9.67 19.4 95.95 18.81 106.53c0 0-59.96 25.63-100.52 11.35 0 0-1.5-103.37-2.68-109.83s-16.75 8.16-16.75 8.16" class="uuid-84108cde-4e52-4647-947b-33f4eaff4017"></path><path id="uuid-7b9a2651-ccfe-4210-8787-0796339b71c9" d="M1086.9 102.9s-2.61-2.84-4.07-1.29c-3.72 3.97 1.2 7.54 4.18 8.03l-.11-6.74Z" class="uuid-197a7934-3fad-4eb5-9547-dc4c48da6714"></path><path id="uuid-ba3edce6-21ca-4f98-ac3d-5e29c65fe173" d="M1084.1 91.33h.03c-.06-.33-.13-.66-.19-1-2.28-14.31 7.48-27.76 21.79-30.04s27.76 7.48 30.04 21.79c.58 3.64.39 7.36-.57 10.92-1.8 8.08-3.37 14.71-5.52 20.03a41.045 41.045 0 0 0-1.2 27.52l.54 1.84c-13.88 9.93-21.87 2.7-21.87 2.7l-1.93-12.15a3.416 3.416 0 0 0-3.15-2.88c-17.2-1.13-16.6-30.25-17.95-38.73" class="uuid-197a7934-3fad-4eb5-9547-dc4c48da6714"></path><path id="uuid-15f5419a-e0ac-4b5c-a467-566496750528" d="M1127.69 100.07c-.54-1.27-.5-2.73-1.08-3.98-1.48-3.17-5.88-3.44-8.68-5.54-3.46-2.6-4.43-8.04-8.48-9.56-1.79-.67-3.98-.45-5.42-1.7-1.05-.91-1.4-2.35-1.99-3.61s-1.73-2.52-3.1-2.31c-.62.13-1.18.45-1.62.9-3.06 2.89-3.41 8.15-7.01 10.33-1.21.6-2.47 1.09-3.75 1.49a11.355 11.355 0 0 0-6.79 8.38c-2.72-1.72-3.12-5.65-2.08-8.69s3.17-5.58 4.64-8.44 2.28-6 3.67-8.89 3.53-5.66 6.59-6.65c2.52-.82 5.28-.31 7.9-.73 2.3-.36 4.42-1.42 6.65-2.1 6.61-1.96 13.76-.6 19.19 3.65 1.83 1.55 3.52 3.25 5.06 5.08 3.54 3.99 7.09 7.98 10.63 11.98 1.7 1.92 3.45 3.92 4.17 6.38 1.21 4.19-.84 8.56-2.83 12.44-.97 1.9-2.18 3.98-4.25 4.5-3.92.97-9.47 1.66-11.4-2.91" class="uuid-46b8d054-8941-4600-b48b-034d43b90d0c"></path><path id="uuid-d469d05f-3462-4723-a63a-44d173a36932" d="M1128.44 101.52c.29-.9.91-1.67 1.73-2.15 1.68-1.01 4.7-2.3 7.22-.47 3.69 2.68-1.37 12.13-8.37 8.94 0 0-2.1-1.52-.58-6.32" class="uuid-197a7934-3fad-4eb5-9547-dc4c48da6714"></path><path id="uuid-f9b36f3a-117e-40d2-9a06-134388c9a853" d="M1077.44 591.85c.76-3.4 6.66-8.1 12.98-13.37 1.39 10.7 22.41-.27 29.62-4.39-.73 6.07-1.41 9.59-3.15 12.2-3.33 5-40.57 10.56-39.46 5.56" class="uuid-2b3d3713-d439-42d8-9041-cbccacf9abed"></path><path id="uuid-c1d1dd3a-e7a2-4bb8-9719-8bd9164b3641" d="M802.07 85.01a2.09 2.09 0 1 1-2.09-2.09c1.16 0 2.09.94 2.09 2.09"></path><path id="uuid-ec663247-4783-4713-8b0a-e0539d82ae3d" d="M800.14 84.32c-.18-1.15.04-2.33.63-3.34.27-.39.64-.71 1.06-.92.39-.2.84-.28 1.28-.21.33.08.67-.11.77-.44a.633.633 0 0 0-.44-.77c-1.39-.23-2.79.35-3.61 1.49a5.92 5.92 0 0 0-.96 4.19c0 .34.29.62.63.63.35 0 .62-.28.63-.63"></path><path id="uuid-1395fc25-5e0a-4e3b-b6c0-111225c42c15" d="M805.67 87.89c.19-1.63.2-3.27.02-4.9-.11-.79-.32-1.56-.62-2.29-.08-.2-.17-.39-.26-.58-.04-.08-.26-.72-.33-.13-.07.02-.06.05.05.09.06.06.12.13.18.2.1.11.19.21.27.33a6.325 6.325 0 0 1 1.25 3.57c.02.64-.05 1.28-.22 1.89-.11.41-.35 1.25-.88 1.29-.8.07-.81 1.32 0 1.26 1.43-.12 2.02-1.62 2.24-2.85a7.74 7.74 0 0 0-.34-3.99c-.23-.62-.54-1.21-.92-1.75-.38-.52-.87-1.23-1.57-1.27-.58-.04-1.08.39-1.12.97-.01.15.01.3.06.45.12.32.26.63.41.94.16.39.29.79.39 1.19.36 1.84.4 3.73.14 5.59-.07.81 1.19.8 1.26 0"></path><path id="uuid-206225da-eb2a-4493-a560-a451ed5e8d85" d="M806.11 87.29c.06-2.52-.26-5.03-.97-7.45l-1.05.61c1.45 1.75 1.2 4.25 1.02 6.36-.07.8 1.19.8 1.26 0 .22-2.51.31-5.19-1.39-7.25-.41-.5-1.22.04-1.05.61.67 2.31.99 4.71.92 7.11 0 .35.28.63.63.62.34 0 .62-.28.62-.62"></path><path id="uuid-bc390c56-fe6e-421b-be48-183b3f1009b2" d="M803.13 79.85c.11.05.22.11.31.18l-.13-.1c.1.07.18.16.26.26l-.1-.13.06.09c.12.22.37.34.62.3.08 0 .16-.03.23-.07.14-.08.25-.22.29-.38l.02-.17a.62.62 0 0 0-.09-.32c-.07-.1-.14-.2-.22-.29-.05-.05-.1-.11-.16-.15-.15-.13-.31-.24-.48-.32a.39.39 0 0 0-.23-.07.53.53 0 0 0-.25.01c-.15.05-.29.15-.38.29l-.06.15c-.03.11-.03.22 0 .33l.06.15c.05.09.13.17.22.23"></path><path id="uuid-42a0ed73-3a2b-44bd-bcd8-57bd41990588" d="M803.08 79.77c.28.36.57.71.85 1.07.05.06.12.1.2.13.07.04.16.06.24.05.17 0 .33-.07.44-.18a.62.62 0 0 0 .18-.44l-.02-.17a.66.66 0 0 0-.16-.28l-.85-1.07a.39.39 0 0 0-.2-.13.402.402 0 0 0-.24-.05c-.35 0-.63.28-.63.63l.02.17c.03.1.09.2.16.28"></path><path id="uuid-1f5c615d-ac94-4356-9cfa-77095b92275d" d="M805.51 81.36c.17.04.35.05.53.03.13-.02.26-.02.39-.01l-.17-.02s.1.02.14.04l-.15-.06s.07.04.1.06l-.13-.1s.06.05.08.08l-.1-.13s.06.09.08.13l-.06-.15c.03.06.04.13.05.2 0-.06-.02-.11-.02-.17.01.1.01.21 0 .32 0-.06.02-.11.02-.17-.02.13-.05.26-.1.38l.06-.15c-.05.11-.11.22-.19.31.03-.04.07-.08.1-.13-.03.04-.06.08-.1.12-.25.25-.24.64 0 .89s.64.24.89 0c.24-.25.41-.55.51-.88.1-.32.1-.66.01-.99-.11-.4-.44-.72-.84-.81-.16-.03-.33-.04-.5-.02-.13.02-.26.02-.39 0l.17.02h-.05a.616.616 0 0 0-.48.05c-.3.17-.4.56-.23.86.08.14.22.25.38.29"></path><path id="uuid-d80e2e2d-a5ac-41b9-8aee-f0942cad5d08" d="M806.78 84.56h.11l-.17-.02c.06 0 .11.02.17.04l-.15-.06c.06.03.12.06.17.1l-.13-.1c.05.04.1.09.14.14l-.1-.13.09.15-.06-.15c.02.05.04.11.05.17 0-.05-.02-.11-.02-.17v.17c0-.06.02-.11.02-.17 0 .06-.02.11-.04.16l.06-.15c-.03.06-.06.12-.1.18l.1-.13s-.08.09-.14.13l.13-.1s-.09.06-.15.09l.15-.06s-.1.03-.15.04c-.16.04-.29.15-.38.29-.08.15-.11.32-.06.48.04.16.15.29.29.38l.15.06c.11.03.22.03.33 0 .14-.03.28-.08.4-.16.16-.1.3-.23.41-.39.17-.23.26-.52.24-.81-.02-.34-.17-.66-.43-.89-.25-.23-.58-.36-.92-.35-.17 0-.32.07-.44.18-.25.25-.25.64 0 .89.12.12.28.18.44.18"></path></g></svg> 